<svg width="51" height="50" viewBox="0 0 51 50" fill="none" xmlns="http://www.w3.org/2000/svg">
    <circle cx="26" cy="25" r="21" fill="#4633B9"/>
    <circle cx="26" cy="25" r="21" fill="#1767F9"/>
    <circle cx="26" cy="25" r="21" fill="#4BB1BC"/>
    <circle cx="26" cy="25" r="21" fill="url(#paint0_radial)"/>
    <circle cx="26" cy="25" r="21" fill="url(#paint1_radial)" fill-opacity="0.5"/>
    <circle cx="26" cy="25" r="21" fill="url(#paint2_linear)"/>
    <circle cx="26" cy="25" r="17.3333" stroke="#FFC530" stroke-width="3.33333"/>
    <circle cx="26" cy="25" r="16.5" stroke="#282E2C" stroke-width="3"/>
    <circle cx="26" cy="25" r="16.5" stroke="black" stroke-width="3"/>
    <path d="M20.3998 28.388C22.3328 31.736 26.7247 32.8192 30.2094 30.8073C33.6941 28.7954 34.952 24.4503 33.019 21.1023C31.086 17.7542 26.6941 16.671 23.2094 18.6829M20.3998 28.388L19.7966 34.0401M20.3998 28.388L25.2966 26.0401" stroke="#282E2C" stroke-width="3"/>
    <path d="M20.3998 28.388C22.3328 31.736 26.7247 32.8192 30.2094 30.8073C33.6941 28.7954 34.952 24.4503 33.019 21.1023C31.086 17.7542 26.6941 16.671 23.2094 18.6829M20.3998 28.388L19.7966 34.0401M20.3998 28.388L25.2966 26.0401" stroke="black" stroke-width="3"/>
    <defs>
        <radialGradient id="paint0_radial" cx="0" cy="0" r="1" gradientUnits="userSpaceOnUse" gradientTransform="translate(30.2 35) rotate(116.98) scale(24.6868 29.135)">
            <stop stop-color="#FF8A1E"/>
            <stop offset="1" stop-color="#EF4141"/>
        </radialGradient>
        <radialGradient id="paint1_radial" cx="0" cy="0" r="1" gradientUnits="userSpaceOnUse" gradientTransform="translate(25.5556 25.5) rotate(-156.552) scale(50.2617 59.3974)">
            <stop stop-color="#BD6514"/>
            <stop offset="1" stop-color="#FFC701" stop-opacity="0"/>
        </radialGradient>
        <linearGradient id="paint2_linear" x1="39.9326" y1="4" x2="7.22354" y2="65.451" gradientUnits="userSpaceOnUse">
            <stop stop-color="#FFF735"/>
            <stop offset="0.0001" stop-color="#F7C273"/>
            <stop offset="1" stop-color="#FF8A01" stop-opacity="0"/>
        </linearGradient>
    </defs>
</svg>
