<svg width="51" height="50" viewBox="0 0 51 50" fill="none" xmlns="http://www.w3.org/2000/svg">
    <path d="M21.5496 5.50144C24.4789 4.83285 27.5211 4.83285 30.4504 5.50144C33.3797 6.17003 36.1207 7.49003 38.4698 9.36337C40.8189 11.2367 42.7157 13.6153 44.0194 16.3223C45.323 19.0294 46 21.9954 46 25C46 28.0046 45.323 30.9706 44.0194 33.6777C42.7157 36.3847 40.8189 38.7633 38.4698 40.6366C36.1207 42.51 33.3797 43.83 30.4504 44.4986C27.5211 45.1671 24.4789 45.1671 21.5496 44.4986C18.6203 43.83 15.8793 42.51 13.5302 40.6366C11.1811 38.7633 9.28427 36.3847 7.98062 33.6777C6.67697 30.9706 6 28.0046 6 25C6 21.9954 6.67697 19.0294 7.98062 16.3223C9.28428 13.6153 11.1811 11.2367 13.5302 9.36337C15.8793 7.49003 18.6203 6.17003 21.5496 5.50144Z" fill="black"/>
    <path d="M21.9946 7.4513C24.631 6.84957 27.369 6.84957 30.0054 7.4513C32.6417 8.05303 35.1086 9.24102 37.2228 10.927C39.337 12.613 41.0442 14.7537 42.2174 17.1901C43.3907 19.6264 44 22.2959 44 25C44 27.7042 43.3907 30.3736 42.2174 32.8099C41.0442 35.2463 39.337 37.387 37.2228 39.073C35.1086 40.759 32.6417 41.947 30.0054 42.5487C27.369 43.1504 24.631 43.1504 21.9946 42.5487C19.3583 41.947 16.8914 40.759 14.7772 39.073C12.663 37.387 10.9558 35.2463 9.78256 32.8099C8.60927 30.3736 8 27.7041 8 25C8 22.2958 8.60927 19.6264 9.78256 17.1901C10.9558 14.7537 12.663 12.613 14.7772 10.927C16.8914 9.24102 19.3583 8.05303 21.9946 7.4513Z" fill="#4633B9"/>
    <path d="M21.9946 7.4513C24.631 6.84957 27.369 6.84957 30.0054 7.4513C32.6417 8.05303 35.1086 9.24102 37.2228 10.927C39.337 12.613 41.0442 14.7537 42.2174 17.1901C43.3907 19.6264 44 22.2959 44 25C44 27.7042 43.3907 30.3736 42.2174 32.8099C41.0442 35.2463 39.337 37.387 37.2228 39.073C35.1086 40.759 32.6417 41.947 30.0054 42.5487C27.369 43.1504 24.631 43.1504 21.9946 42.5487C19.3583 41.947 16.8914 40.759 14.7772 39.073C12.663 37.387 10.9558 35.2463 9.78256 32.8099C8.60927 30.3736 8 27.7041 8 25C8 22.2958 8.60927 19.6264 9.78256 17.1901C10.9558 14.7537 12.663 12.613 14.7772 10.927C16.8914 9.24102 19.3583 8.05303 21.9946 7.4513Z" fill="#1767F9"/>
    <path d="M21.9946 7.4513C24.631 6.84957 27.369 6.84957 30.0054 7.4513C32.6417 8.05303 35.1086 9.24102 37.2228 10.927C39.337 12.613 41.0442 14.7537 42.2174 17.1901C43.3907 19.6264 44 22.2959 44 25C44 27.7042 43.3907 30.3736 42.2174 32.8099C41.0442 35.2463 39.337 37.387 37.2228 39.073C35.1086 40.759 32.6417 41.947 30.0054 42.5487C27.369 43.1504 24.631 43.1504 21.9946 42.5487C19.3583 41.947 16.8914 40.759 14.7772 39.073C12.663 37.387 10.9558 35.2463 9.78256 32.8099C8.60927 30.3736 8 27.7041 8 25C8 22.2958 8.60927 19.6264 9.78256 17.1901C10.9558 14.7537 12.663 12.613 14.7772 10.927C16.8914 9.24102 19.3583 8.05303 21.9946 7.4513Z" fill="#4BB1BC"/>
    <path d="M21.9946 7.4513C24.631 6.84957 27.369 6.84957 30.0054 7.4513C32.6417 8.05303 35.1086 9.24102 37.2228 10.927C39.337 12.613 41.0442 14.7537 42.2174 17.1901C43.3907 19.6264 44 22.2959 44 25C44 27.7042 43.3907 30.3736 42.2174 32.8099C41.0442 35.2463 39.337 37.387 37.2228 39.073C35.1086 40.759 32.6417 41.947 30.0054 42.5487C27.369 43.1504 24.631 43.1504 21.9946 42.5487C19.3583 41.947 16.8914 40.759 14.7772 39.073C12.663 37.387 10.9558 35.2463 9.78256 32.8099C8.60927 30.3736 8 27.7041 8 25C8 22.2958 8.60927 19.6264 9.78256 17.1901C10.9558 14.7537 12.663 12.613 14.7772 10.927C16.8914 9.24102 19.3583 8.05303 21.9946 7.4513Z" fill="url(#paint0_radial)"/>
    <path d="M21.9946 7.4513C24.631 6.84957 27.369 6.84957 30.0054 7.4513C32.6417 8.05303 35.1086 9.24102 37.2228 10.927C39.337 12.613 41.0442 14.7537 42.2174 17.1901C43.3907 19.6264 44 22.2959 44 25C44 27.7042 43.3907 30.3736 42.2174 32.8099C41.0442 35.2463 39.337 37.387 37.2228 39.073C35.1086 40.759 32.6417 41.947 30.0054 42.5487C27.369 43.1504 24.631 43.1504 21.9946 42.5487C19.3583 41.947 16.8914 40.759 14.7772 39.073C12.663 37.387 10.9558 35.2463 9.78256 32.8099C8.60927 30.3736 8 27.7041 8 25C8 22.2958 8.60927 19.6264 9.78256 17.1901C10.9558 14.7537 12.663 12.613 14.7772 10.927C16.8914 9.24102 19.3583 8.05303 21.9946 7.4513Z" fill="url(#paint1_radial)" fill-opacity="0.5"/>
    <path d="M21.9946 7.4513C24.631 6.84957 27.369 6.84957 30.0054 7.4513C32.6417 8.05303 35.1086 9.24102 37.2228 10.927C39.337 12.613 41.0442 14.7537 42.2174 17.1901C43.3907 19.6264 44 22.2959 44 25C44 27.7042 43.3907 30.3736 42.2174 32.8099C41.0442 35.2463 39.337 37.387 37.2228 39.073C35.1086 40.759 32.6417 41.947 30.0054 42.5487C27.369 43.1504 24.631 43.1504 21.9946 42.5487C19.3583 41.947 16.8914 40.759 14.7772 39.073C12.663 37.387 10.9558 35.2463 9.78256 32.8099C8.60927 30.3736 8 27.7041 8 25C8 22.2958 8.60927 19.6264 9.78256 17.1901C10.9558 14.7537 12.663 12.613 14.7772 10.927C16.8914 9.24102 19.3583 8.05303 21.9946 7.4513Z" fill="url(#paint2_linear)"/>
    <path d="M22.996 11.8385C24.9732 11.3872 27.0268 11.3872 29.004 11.8385C30.9813 12.2898 32.8315 13.1808 34.4171 14.4453C36.0028 15.7098 37.2831 17.3153 38.1631 19.1426C39.043 20.9698 39.5 22.9719 39.5 25C39.5 27.0281 39.043 29.0302 38.1631 30.8574C37.2831 32.6847 36.0028 34.2902 34.4171 35.5547C32.8315 36.8192 30.9813 37.7102 29.004 38.1615C27.0268 38.6128 24.9732 38.6128 22.996 38.1615C21.0187 37.7102 19.1685 36.8192 17.5829 35.5547C15.9972 34.2902 14.7169 32.6847 13.8369 30.8574C12.957 29.0302 12.5 27.0281 12.5 25C12.5 22.9719 12.957 20.9698 13.8369 19.1426C14.7169 17.3153 15.9972 15.7098 17.5829 14.4453C19.1685 13.1808 21.0187 12.2898 22.996 11.8385Z" stroke="#282E2C" stroke-width="3"/>
    <path d="M22.996 11.8385C24.9732 11.3872 27.0268 11.3872 29.004 11.8385C30.9813 12.2898 32.8315 13.1808 34.4171 14.4453C36.0028 15.7098 37.2831 17.3153 38.1631 19.1426C39.043 20.9698 39.5 22.9719 39.5 25C39.5 27.0281 39.043 29.0302 38.1631 30.8574C37.2831 32.6847 36.0028 34.2902 34.4171 35.5547C32.8315 36.8192 30.9813 37.7102 29.004 38.1615C27.0268 38.6128 24.9732 38.6128 22.996 38.1615C21.0187 37.7102 19.1685 36.8192 17.5829 35.5547C15.9972 34.2902 14.7169 32.6847 13.8369 30.8574C12.957 29.0302 12.5 27.0281 12.5 25C12.5 22.9719 12.957 20.9698 13.8369 19.1426C14.7169 17.3153 15.9972 15.7098 17.5829 14.4453C19.1685 13.1808 21.0187 12.2898 22.996 11.8385Z" stroke="black" stroke-width="3"/>
    <circle cx="26" cy="25" r="14.3333" stroke="#FFC530" stroke-width="3.33333"/>
    <path d="M22.996 11.8385C24.9732 11.3872 27.0268 11.3872 29.004 11.8385C30.9813 12.2898 32.8315 13.1808 34.4171 14.4453C36.0028 15.7098 37.2831 17.3153 38.1631 19.1426C39.043 20.9698 39.5 22.9719 39.5 25C39.5 27.0281 39.043 29.0302 38.1631 30.8574C37.2831 32.6847 36.0028 34.2902 34.4171 35.5547C32.8315 36.8192 30.9813 37.7102 29.004 38.1615C27.0268 38.6128 24.9732 38.6128 22.996 38.1615C21.0187 37.7102 19.1685 36.8192 17.5829 35.5547C15.9972 34.2902 14.7169 32.6847 13.8369 30.8574C12.957 29.0302 12.5 27.0281 12.5 25C12.5 22.9719 12.957 20.9698 13.8369 19.1426C14.7169 17.3153 15.9972 15.7098 17.5829 14.4453C19.1685 13.1808 21.0187 12.2898 22.996 11.8385Z" stroke="#282E2C" stroke-width="3"/>
    <path d="M22.996 11.8385C24.9732 11.3872 27.0268 11.3872 29.004 11.8385C30.9813 12.2898 32.8315 13.1808 34.4171 14.4453C36.0028 15.7098 37.2831 17.3153 38.1631 19.1426C39.043 20.9698 39.5 22.9719 39.5 25C39.5 27.0281 39.043 29.0302 38.1631 30.8574C37.2831 32.6847 36.0028 34.2902 34.4171 35.5547C32.8315 36.8192 30.9813 37.7102 29.004 38.1615C27.0268 38.6128 24.9732 38.6128 22.996 38.1615C21.0187 37.7102 19.1685 36.8192 17.5829 35.5547C15.9972 34.2902 14.7169 32.6847 13.8369 30.8574C12.957 29.0302 12.5 27.0281 12.5 25C12.5 22.9719 12.957 20.9698 13.8369 19.1426C14.7169 17.3153 15.9972 15.7098 17.5829 14.4453C19.1685 13.1808 21.0187 12.2898 22.996 11.8385Z" stroke="black" stroke-width="3"/>
    <path fill-rule="evenodd" clip-rule="evenodd" d="M19.0539 22.2401C22.8719 21.837 26.2665 19.6313 28.1861 16.3065L30.6216 12.0882L34.0857 14.0882L31.6502 18.3065C29.7306 21.6313 29.5178 25.674 31.0777 29.1821L33.7074 35.0961L30.0524 36.7213L28.663 33.5966C26.5491 28.8425 21.6123 25.9922 16.4381 26.5385L13.0373 26.8976L12.6173 22.9197L19.0539 22.2401Z" fill="black"/>
    <defs>
        <radialGradient id="paint0_radial" cx="0" cy="0" r="1" gradientUnits="userSpaceOnUse" gradientTransform="translate(29.6 33.5714) rotate(116.98) scale(21.1601 24.9728)">
            <stop stop-color="#FF8A1E"/>
            <stop offset="1" stop-color="#EF4141"/>
        </radialGradient>
        <radialGradient id="paint1_radial" cx="0" cy="0" r="1" gradientUnits="userSpaceOnUse" gradientTransform="translate(25.6191 25.4286) rotate(-156.552) scale(43.0814 50.9121)">
            <stop stop-color="#BD6514"/>
            <stop offset="1" stop-color="#FFC701" stop-opacity="0"/>
        </radialGradient>
        <linearGradient id="paint2_linear" x1="37.9422" y1="7" x2="9.90589" y2="59.6723" gradientUnits="userSpaceOnUse">
            <stop stop-color="#FFF735"/>
            <stop offset="0.0001" stop-color="#F7C273"/>
            <stop offset="1" stop-color="#FF8A01" stop-opacity="0"/>
        </linearGradient>
    </defs>
</svg>
