<svg width="51" height="50" viewBox="0 0 51 50" fill="none" xmlns="http://www.w3.org/2000/svg">
    <g clip-path="url(#clip0)">
        <path d="M37.3057 43.7841L45.3289 43.0308L40.2575 32.1551L27.213 40.0993L31.5714 49.446L37.3057 43.7841Z" fill="#4633B9"/>
        <path d="M37.3057 43.7841L45.3289 43.0308L40.2575 32.1551L27.213 40.0993L31.5714 49.446L37.3057 43.7841Z" fill="#42516B"/>
        <path d="M37.3057 43.7841L45.3289 43.0308L40.2575 32.1551L27.213 40.0993L31.5714 49.446L37.3057 43.7841Z" fill="#4BB1BC"/>
        <path d="M37.3057 43.7841L45.3289 43.0308L40.2575 32.1551L27.213 40.0993L31.5714 49.446L37.3057 43.7841Z" fill="url(#paint0_radial)"/>
        <path d="M37.3057 43.7841L45.3289 43.0308L40.2575 32.1551L27.213 40.0993L31.5714 49.446L37.3057 43.7841Z" fill="url(#paint1_radial)" fill-opacity="0.5"/>
        <path d="M37.3057 43.7841L45.3289 43.0308L40.2575 32.1551L27.213 40.0993L31.5714 49.446L37.3057 43.7841Z" fill="url(#paint2_linear)"/>
        <path d="M37.3057 43.7841L45.3289 43.0308L40.2575 32.1551L27.213 40.0993L31.5714 49.446L37.3057 43.7841Z" fill="url(#paint3_linear)"/>
        <path d="M13.1514 43.7841L5.12814 43.0308L10.1996 32.1551L23.2441 40.0993L18.8856 49.446L13.1514 43.7841Z" fill="#4633B9"/>
        <path d="M13.1514 43.7841L5.12814 43.0308L10.1996 32.1551L23.2441 40.0993L18.8856 49.446L13.1514 43.7841Z" fill="#42516B"/>
        <path d="M13.1514 43.7841L5.12814 43.0308L10.1996 32.1551L23.2441 40.0993L18.8856 49.446L13.1514 43.7841Z" fill="#4BB1BC"/>
        <path d="M13.1514 43.7841L5.12814 43.0308L10.1996 32.1551L23.2441 40.0993L18.8856 49.446L13.1514 43.7841Z" fill="url(#paint4_radial)"/>
        <path d="M13.1514 43.7841L5.12814 43.0308L10.1996 32.1551L23.2441 40.0993L18.8856 49.446L13.1514 43.7841Z" fill="url(#paint5_radial)" fill-opacity="0.5"/>
        <path d="M13.1514 43.7841L5.12814 43.0308L10.1996 32.1551L23.2441 40.0993L18.8856 49.446L13.1514 43.7841Z" fill="url(#paint6_linear)"/>
        <path d="M13.1514 43.7841L5.12814 43.0308L10.1996 32.1551L23.2441 40.0993L18.8856 49.446L13.1514 43.7841Z" fill="url(#paint7_linear)"/>
        <path d="M20.4383 0.513978C23.4408 -0.171326 26.5592 -0.171326 29.5617 0.513978C32.5642 1.19928 35.3737 2.55228 37.7815 4.47246C40.1894 6.39263 42.1336 8.83065 43.4699 11.6054C44.8061 14.3801 45.5 17.4203 45.5 20.5C45.5 23.5797 44.8061 26.6199 43.4699 29.3946C42.1336 32.1694 40.1894 34.6074 37.7815 36.5275C35.3737 38.4477 32.5642 39.8007 29.5617 40.486C26.5592 41.1713 23.4408 41.1713 20.4383 40.486C17.4358 39.8007 14.6263 38.4477 12.2185 36.5275C9.81063 34.6074 7.86638 32.1694 6.53014 29.3946C5.1939 26.6199 4.5 23.5797 4.5 20.5C4.5 17.4203 5.1939 14.3801 6.53014 11.6054C7.86638 8.83065 9.81063 6.39263 12.2185 4.47245C14.6263 2.55228 17.4358 1.19928 20.4383 0.513978Z" fill="#4633B9"/>
        <path d="M20.4383 0.513978C23.4408 -0.171326 26.5592 -0.171326 29.5617 0.513978C32.5642 1.19928 35.3737 2.55228 37.7815 4.47246C40.1894 6.39263 42.1336 8.83065 43.4699 11.6054C44.8061 14.3801 45.5 17.4203 45.5 20.5C45.5 23.5797 44.8061 26.6199 43.4699 29.3946C42.1336 32.1694 40.1894 34.6074 37.7815 36.5275C35.3737 38.4477 32.5642 39.8007 29.5617 40.486C26.5592 41.1713 23.4408 41.1713 20.4383 40.486C17.4358 39.8007 14.6263 38.4477 12.2185 36.5275C9.81063 34.6074 7.86638 32.1694 6.53014 29.3946C5.1939 26.6199 4.5 23.5797 4.5 20.5C4.5 17.4203 5.1939 14.3801 6.53014 11.6054C7.86638 8.83065 9.81063 6.39263 12.2185 4.47245C14.6263 2.55228 17.4358 1.19928 20.4383 0.513978Z" fill="#1767F9"/>
        <path d="M20.4383 0.513978C23.4408 -0.171326 26.5592 -0.171326 29.5617 0.513978C32.5642 1.19928 35.3737 2.55228 37.7815 4.47246C40.1894 6.39263 42.1336 8.83065 43.4699 11.6054C44.8061 14.3801 45.5 17.4203 45.5 20.5C45.5 23.5797 44.8061 26.6199 43.4699 29.3946C42.1336 32.1694 40.1894 34.6074 37.7815 36.5275C35.3737 38.4477 32.5642 39.8007 29.5617 40.486C26.5592 41.1713 23.4408 41.1713 20.4383 40.486C17.4358 39.8007 14.6263 38.4477 12.2185 36.5275C9.81063 34.6074 7.86638 32.1694 6.53014 29.3946C5.1939 26.6199 4.5 23.5797 4.5 20.5C4.5 17.4203 5.1939 14.3801 6.53014 11.6054C7.86638 8.83065 9.81063 6.39263 12.2185 4.47245C14.6263 2.55228 17.4358 1.19928 20.4383 0.513978Z" fill="#4BB1BC"/>
        <path d="M20.4383 0.513978C23.4408 -0.171326 26.5592 -0.171326 29.5617 0.513978C32.5642 1.19928 35.3737 2.55228 37.7815 4.47246C40.1894 6.39263 42.1336 8.83065 43.4699 11.6054C44.8061 14.3801 45.5 17.4203 45.5 20.5C45.5 23.5797 44.8061 26.6199 43.4699 29.3946C42.1336 32.1694 40.1894 34.6074 37.7815 36.5275C35.3737 38.4477 32.5642 39.8007 29.5617 40.486C26.5592 41.1713 23.4408 41.1713 20.4383 40.486C17.4358 39.8007 14.6263 38.4477 12.2185 36.5275C9.81063 34.6074 7.86638 32.1694 6.53014 29.3946C5.1939 26.6199 4.5 23.5797 4.5 20.5C4.5 17.4203 5.1939 14.3801 6.53014 11.6054C7.86638 8.83065 9.81063 6.39263 12.2185 4.47245C14.6263 2.55228 17.4358 1.19928 20.4383 0.513978Z" fill="url(#paint8_radial)"/>
        <path d="M20.4383 0.513978C23.4408 -0.171326 26.5592 -0.171326 29.5617 0.513978C32.5642 1.19928 35.3737 2.55228 37.7815 4.47246C40.1894 6.39263 42.1336 8.83065 43.4699 11.6054C44.8061 14.3801 45.5 17.4203 45.5 20.5C45.5 23.5797 44.8061 26.6199 43.4699 29.3946C42.1336 32.1694 40.1894 34.6074 37.7815 36.5275C35.3737 38.4477 32.5642 39.8007 29.5617 40.486C26.5592 41.1713 23.4408 41.1713 20.4383 40.486C17.4358 39.8007 14.6263 38.4477 12.2185 36.5275C9.81063 34.6074 7.86638 32.1694 6.53014 29.3946C5.1939 26.6199 4.5 23.5797 4.5 20.5C4.5 17.4203 5.1939 14.3801 6.53014 11.6054C7.86638 8.83065 9.81063 6.39263 12.2185 4.47245C14.6263 2.55228 17.4358 1.19928 20.4383 0.513978Z" fill="url(#paint9_radial)" fill-opacity="0.5"/>
        <path d="M20.4383 0.513978C23.4408 -0.171326 26.5592 -0.171326 29.5617 0.513978C32.5642 1.19928 35.3737 2.55228 37.7815 4.47246C40.1894 6.39263 42.1336 8.83065 43.4699 11.6054C44.8061 14.3801 45.5 17.4203 45.5 20.5C45.5 23.5797 44.8061 26.6199 43.4699 29.3946C42.1336 32.1694 40.1894 34.6074 37.7815 36.5275C35.3737 38.4477 32.5642 39.8007 29.5617 40.486C26.5592 41.1713 23.4408 41.1713 20.4383 40.486C17.4358 39.8007 14.6263 38.4477 12.2185 36.5275C9.81063 34.6074 7.86638 32.1694 6.53014 29.3946C5.1939 26.6199 4.5 23.5797 4.5 20.5C4.5 17.4203 5.1939 14.3801 6.53014 11.6054C7.86638 8.83065 9.81063 6.39263 12.2185 4.47245C14.6263 2.55228 17.4358 1.19928 20.4383 0.513978Z" fill="url(#paint10_radial)"/>
        <path d="M21.3284 4.41369C23.7451 3.8621 26.2549 3.8621 28.6716 4.41369C31.0883 4.96528 33.3496 6.05427 35.2876 7.59978C37.2256 9.14529 38.7905 11.1076 39.866 13.3409C40.9415 15.5742 41.5 18.0212 41.5 20.5C41.5 22.9788 40.9415 25.4258 39.866 27.6591C38.7905 29.8924 37.2256 31.8547 35.2876 33.4002C33.3496 34.9457 31.0883 36.0347 28.6716 36.5863C26.2549 37.1379 23.7451 37.1379 21.3284 36.5863C18.9117 36.0347 16.6504 34.9457 14.7124 33.4002C12.7744 31.8547 11.2095 29.8924 10.134 27.6591C9.0585 25.4258 8.5 22.9788 8.5 20.5C8.5 18.0212 9.0585 15.5742 10.134 13.3409C11.2095 11.1076 12.7744 9.14529 14.7124 7.59978C16.6504 6.05427 18.9117 4.96528 21.3284 4.41369Z" fill="#4633B9"/>
        <path d="M21.3284 4.41369C23.7451 3.8621 26.2549 3.8621 28.6716 4.41369C31.0883 4.96528 33.3496 6.05427 35.2876 7.59978C37.2256 9.14529 38.7905 11.1076 39.866 13.3409C40.9415 15.5742 41.5 18.0212 41.5 20.5C41.5 22.9788 40.9415 25.4258 39.866 27.6591C38.7905 29.8924 37.2256 31.8547 35.2876 33.4002C33.3496 34.9457 31.0883 36.0347 28.6716 36.5863C26.2549 37.1379 23.7451 37.1379 21.3284 36.5863C18.9117 36.0347 16.6504 34.9457 14.7124 33.4002C12.7744 31.8547 11.2095 29.8924 10.134 27.6591C9.0585 25.4258 8.5 22.9788 8.5 20.5C8.5 18.0212 9.0585 15.5742 10.134 13.3409C11.2095 11.1076 12.7744 9.14529 14.7124 7.59978C16.6504 6.05427 18.9117 4.96528 21.3284 4.41369Z" fill="#1767F9"/>
        <path d="M21.3284 4.41369C23.7451 3.8621 26.2549 3.8621 28.6716 4.41369C31.0883 4.96528 33.3496 6.05427 35.2876 7.59978C37.2256 9.14529 38.7905 11.1076 39.866 13.3409C40.9415 15.5742 41.5 18.0212 41.5 20.5C41.5 22.9788 40.9415 25.4258 39.866 27.6591C38.7905 29.8924 37.2256 31.8547 35.2876 33.4002C33.3496 34.9457 31.0883 36.0347 28.6716 36.5863C26.2549 37.1379 23.7451 37.1379 21.3284 36.5863C18.9117 36.0347 16.6504 34.9457 14.7124 33.4002C12.7744 31.8547 11.2095 29.8924 10.134 27.6591C9.0585 25.4258 8.5 22.9788 8.5 20.5C8.5 18.0212 9.0585 15.5742 10.134 13.3409C11.2095 11.1076 12.7744 9.14529 14.7124 7.59978C16.6504 6.05427 18.9117 4.96528 21.3284 4.41369Z" fill="#4BB1BC"/>
        <path d="M21.3284 4.41369C23.7451 3.8621 26.2549 3.8621 28.6716 4.41369C31.0883 4.96528 33.3496 6.05427 35.2876 7.59978C37.2256 9.14529 38.7905 11.1076 39.866 13.3409C40.9415 15.5742 41.5 18.0212 41.5 20.5C41.5 22.9788 40.9415 25.4258 39.866 27.6591C38.7905 29.8924 37.2256 31.8547 35.2876 33.4002C33.3496 34.9457 31.0883 36.0347 28.6716 36.5863C26.2549 37.1379 23.7451 37.1379 21.3284 36.5863C18.9117 36.0347 16.6504 34.9457 14.7124 33.4002C12.7744 31.8547 11.2095 29.8924 10.134 27.6591C9.0585 25.4258 8.5 22.9788 8.5 20.5C8.5 18.0212 9.0585 15.5742 10.134 13.3409C11.2095 11.1076 12.7744 9.14529 14.7124 7.59978C16.6504 6.05427 18.9117 4.96528 21.3284 4.41369Z" fill="url(#paint11_radial)"/>
        <path d="M21.3284 4.41369C23.7451 3.8621 26.2549 3.8621 28.6716 4.41369C31.0883 4.96528 33.3496 6.05427 35.2876 7.59978C37.2256 9.14529 38.7905 11.1076 39.866 13.3409C40.9415 15.5742 41.5 18.0212 41.5 20.5C41.5 22.9788 40.9415 25.4258 39.866 27.6591C38.7905 29.8924 37.2256 31.8547 35.2876 33.4002C33.3496 34.9457 31.0883 36.0347 28.6716 36.5863C26.2549 37.1379 23.7451 37.1379 21.3284 36.5863C18.9117 36.0347 16.6504 34.9457 14.7124 33.4002C12.7744 31.8547 11.2095 29.8924 10.134 27.6591C9.0585 25.4258 8.5 22.9788 8.5 20.5C8.5 18.0212 9.0585 15.5742 10.134 13.3409C11.2095 11.1076 12.7744 9.14529 14.7124 7.59978C16.6504 6.05427 18.9117 4.96528 21.3284 4.41369Z" fill="url(#paint12_radial)" fill-opacity="0.5"/>
        <path d="M21.3284 4.41369C23.7451 3.8621 26.2549 3.8621 28.6716 4.41369C31.0883 4.96528 33.3496 6.05427 35.2876 7.59978C37.2256 9.14529 38.7905 11.1076 39.866 13.3409C40.9415 15.5742 41.5 18.0212 41.5 20.5C41.5 22.9788 40.9415 25.4258 39.866 27.6591C38.7905 29.8924 37.2256 31.8547 35.2876 33.4002C33.3496 34.9457 31.0883 36.0347 28.6716 36.5863C26.2549 37.1379 23.7451 37.1379 21.3284 36.5863C18.9117 36.0347 16.6504 34.9457 14.7124 33.4002C12.7744 31.8547 11.2095 29.8924 10.134 27.6591C9.0585 25.4258 8.5 22.9788 8.5 20.5C8.5 18.0212 9.0585 15.5742 10.134 13.3409C11.2095 11.1076 12.7744 9.14529 14.7124 7.59978C16.6504 6.05427 18.9117 4.96528 21.3284 4.41369Z" fill="url(#paint13_radial)"/>
        <path d="M21.6622 5.87608C23.8591 5.37464 26.1409 5.37464 28.3378 5.87608C30.5348 6.37752 32.5905 7.36752 34.3523 8.77253C36.1142 10.1775 37.5368 11.9614 38.5145 13.9917C39.4923 16.022 40 18.2465 40 20.5C40 22.7535 39.4923 24.978 38.5145 27.0083C37.5368 29.0386 36.1142 30.8225 34.3523 32.2275C32.5905 33.6325 30.5348 34.6225 28.3378 35.1239C26.1409 35.6254 23.8591 35.6254 21.6622 35.1239C19.4652 34.6225 17.4095 33.6325 15.6477 32.2275C13.8858 30.8225 12.4632 29.0386 11.4855 27.0083C10.5077 24.978 10 22.7535 10 20.5C10 18.2465 10.5077 16.022 11.4855 13.9917C12.4632 11.9614 13.8858 10.1775 15.6477 8.77253C17.4095 7.36752 19.4652 6.37752 21.6622 5.87608Z" stroke="#282E2C" stroke-width="3"/>
        <path d="M21.6622 5.87608C23.8591 5.37464 26.1409 5.37464 28.3378 5.87608C30.5348 6.37752 32.5905 7.36752 34.3523 8.77253C36.1142 10.1775 37.5368 11.9614 38.5145 13.9917C39.4923 16.022 40 18.2465 40 20.5C40 22.7535 39.4923 24.978 38.5145 27.0083C37.5368 29.0386 36.1142 30.8225 34.3523 32.2275C32.5905 33.6325 30.5348 34.6225 28.3378 35.1239C26.1409 35.6254 23.8591 35.6254 21.6622 35.1239C19.4652 34.6225 17.4095 33.6325 15.6477 32.2275C13.8858 30.8225 12.4632 29.0386 11.4855 27.0083C10.5077 24.978 10 22.7535 10 20.5C10 18.2465 10.5077 16.022 11.4855 13.9917C12.4632 11.9614 13.8858 10.1775 15.6477 8.77253C17.4095 7.36752 19.4652 6.37752 21.6622 5.87608Z" stroke="black" stroke-width="3"/>
        <g filter="url(#filter0_d)">
            <path d="M25 12L27.8353 17.0975L33.5595 18.2188L29.5876 22.4906L30.2901 28.2812L25 25.8237L19.7099 28.2812L20.4124 22.4906L16.4405 18.2188L22.1647 17.0975L25 12Z" fill="#282E2C"/>
            <path d="M25 12L27.8353 17.0975L33.5595 18.2188L29.5876 22.4906L30.2901 28.2812L25 25.8237L19.7099 28.2812L20.4124 22.4906L16.4405 18.2188L22.1647 17.0975L25 12Z" fill="black"/>
        </g>
    </g>
    <defs>
        <filter id="filter0_d" x="13.4414" y="11" width="23.119" height="22.2812" filterUnits="userSpaceOnUse" color-interpolation-filters="sRGB">
            <feFlood flood-opacity="0" result="BackgroundImageFix"/>
            <feColorMatrix in="SourceAlpha" type="matrix" values="0 0 0 0 0 0 0 0 0 0 0 0 0 0 0 0 0 0 127 0"/>
            <feOffset dy="2"/>
            <feGaussianBlur stdDeviation="1.5"/>
            <feColorMatrix type="matrix" values="0 0 0 0 0.85 0 0 0 0 0.357 0 0 0 0 0 0 0 0 0.5 0"/>
            <feBlend mode="normal" in2="BackgroundImageFix" result="effect1_dropShadow"/>
            <feBlend mode="normal" in="SourceGraphic" in2="effect1_dropShadow" result="shape"/>
        </filter>
        <radialGradient id="paint0_radial" cx="0" cy="0" r="1" gradientUnits="userSpaceOnUse" gradientTransform="translate(38.4977 42.7485) rotate(97.781) scale(7.47635 9.93427)">
            <stop stop-color="#FF8A1E"/>
            <stop offset="1" stop-color="#EF4141"/>
        </radialGradient>
        <radialGradient id="paint1_radial" cx="0" cy="0" r="1" gradientUnits="userSpaceOnUse" gradientTransform="translate(35.8292 40.9979) rotate(173.926) scale(17.618 17.4982)">
            <stop stop-color="#FFA901"/>
            <stop offset="1" stop-color="#FFC701" stop-opacity="0"/>
        </radialGradient>
        <linearGradient id="paint2_linear" x1="39.4169" y1="47.3959" x2="36.7889" y2="35.3351" gradientUnits="userSpaceOnUse">
            <stop stop-color="#FFDF35"/>
            <stop offset="1" stop-color="#FF8A01" stop-opacity="0"/>
        </linearGradient>
        <linearGradient id="paint3_linear" x1="39.4168" y1="47.3949" x2="34.5895" y2="36.0533" gradientUnits="userSpaceOnUse">
            <stop stop-color="#FFC700"/>
            <stop offset="1" stop-color="#FF650E"/>
        </linearGradient>
        <radialGradient id="paint4_radial" cx="0" cy="0" r="1" gradientUnits="userSpaceOnUse" gradientTransform="translate(11.9594 42.7485) rotate(82.219) scale(7.47635 9.93427)">
            <stop stop-color="#FF8A1E"/>
            <stop offset="1" stop-color="#EF4141"/>
        </radialGradient>
        <radialGradient id="paint5_radial" cx="0" cy="0" r="1" gradientUnits="userSpaceOnUse" gradientTransform="translate(14.6278 40.9979) rotate(6.07417) scale(17.618 17.4982)">
            <stop stop-color="#FFA901"/>
            <stop offset="1" stop-color="#FFC701" stop-opacity="0"/>
        </radialGradient>
        <linearGradient id="paint6_linear" x1="11.0402" y1="47.3959" x2="13.6681" y2="35.3351" gradientUnits="userSpaceOnUse">
            <stop stop-color="#FFDF35"/>
            <stop offset="1" stop-color="#FF8A01" stop-opacity="0"/>
        </linearGradient>
        <linearGradient id="paint7_linear" x1="11.0402" y1="47.3949" x2="15.8676" y2="36.0533" gradientUnits="userSpaceOnUse">
            <stop stop-color="#FFC700"/>
            <stop offset="1" stop-color="#FF650E"/>
        </linearGradient>
        <radialGradient id="paint8_radial" cx="0" cy="0" r="1" gradientUnits="userSpaceOnUse" gradientTransform="translate(29.2053 30.5128) rotate(116.98) scale(24.7188 29.1727)">
            <stop stop-color="#FF8A1E"/>
            <stop offset="1" stop-color="#EF4141"/>
        </radialGradient>
        <radialGradient id="paint9_radial" cx="0" cy="0" r="1" gradientUnits="userSpaceOnUse" gradientTransform="translate(24.5549 21.0005) rotate(-156.552) scale(50.3268 59.4743)">
            <stop stop-color="#FFA901"/>
            <stop offset="1" stop-color="#FFC701" stop-opacity="0"/>
        </radialGradient>
        <radialGradient id="paint10_radial" cx="0" cy="0" r="1" gradientUnits="userSpaceOnUse" gradientTransform="translate(24.5548 18.9979) rotate(-169.487) scale(55.1515 47.4723)">
            <stop stop-color="#FFDF35"/>
            <stop offset="1" stop-color="#FF8A01" stop-opacity="0"/>
        </radialGradient>
        <radialGradient id="paint11_radial" cx="0" cy="0" r="1" gradientUnits="userSpaceOnUse" gradientTransform="translate(28.3848 28.5591) rotate(116.98) scale(19.8956 23.4805)">
            <stop stop-color="#FF8A1E"/>
            <stop offset="1" stop-color="#EF4141"/>
        </radialGradient>
        <radialGradient id="paint12_radial" cx="0" cy="0" r="1" gradientUnits="userSpaceOnUse" gradientTransform="translate(24.6417 20.9029) rotate(-156.552) scale(40.5069 47.8696)">
            <stop stop-color="#FFA901"/>
            <stop offset="1" stop-color="#FFC701" stop-opacity="0"/>
        </radialGradient>
        <radialGradient id="paint13_radial" cx="0" cy="0" r="1" gradientUnits="userSpaceOnUse" gradientTransform="translate(24.6417 19.291) rotate(-168.579) scale(31.7708 27.347)">
            <stop stop-color="#FFDF35"/>
            <stop offset="1" stop-color="#FF8A01" stop-opacity="0"/>
        </radialGradient>
        <clipPath id="clip0">
            <rect width="50" height="50" fill="white" transform="translate(0.5)"/>
        </clipPath>
    </defs>
</svg>
