<svg width="91" height="32" viewBox="0 0 91 32" fill="none" xmlns="http://www.w3.org/2000/svg">
    <path fill-rule="evenodd" clip-rule="evenodd" d="M85.5681 25.5477C86.4995 25.5477 87.7669 25.5477 89.0333 25.5477L91 31.2767C88.0053 31.2767 90.1185 31.2767 85.5684 31.2767C80.4176 31.2767 76.242 27.2353 76.242 22.2499C76.242 17.2647 76.242 9.49739 76.242 9.49739L82.1552 6.21485C82.1552 6.21485 82.1719 10.9939 82.186 15.3704H85.5392L87.6287 21.4569L82.204 21.4842C82.2048 21.8479 82.2051 22.1247 82.2051 22.2924C82.2051 24.0902 83.7109 25.5477 85.5681 25.5477ZM67.4097 31.3577C63.4325 31.6129 57.4832 31.0883 57.4832 31.0883L58.3589 25.3789C58.3589 25.3789 66.3356 25.7138 67.0665 25.6669C67.5765 25.6341 68.3891 25.5654 68.3565 25.0288C68.3297 24.5857 68.0767 24.5431 66.5327 24.1104C64.078 23.3995 63.5871 23.6648 60.9982 22.6998C58.5689 21.794 57.3323 19.8146 57.1846 17.3792C56.9509 13.5295 58.7379 10.9012 64.0011 10.5638C67.9786 10.3086 73.3948 10.8251 73.3948 10.8251L72.282 16.5312C72.282 16.5312 65.1947 16.1974 64.4636 16.2443C63.7327 16.2912 63.0378 16.3496 63.0713 16.8977C63.1177 17.6626 64.14 17.8916 64.9574 18.0762C67.5336 18.828 67.9014 18.6688 69.7735 19.2727C72.7432 20.2307 74.0541 21.7018 74.2387 24.7479C74.4723 28.5976 72.47 31.0335 67.4097 31.3577ZM45.7074 31.2767C40.5566 31.2767 36.3813 27.2353 36.3813 22.2499C36.3813 17.2647 36.3813 13.4903 36.3813 13.4903L42.2942 10.2077C42.2942 10.2077 42.3444 20.4949 42.3444 22.2924C42.3444 24.0902 43.8499 25.5477 45.7074 25.5477C47.5646 25.5477 49.0704 24.0902 49.0704 22.2924C49.0704 20.4949 49.1208 13.4903 49.1208 13.4903L55.0338 10.2077C55.0338 10.2077 55.0338 17.2647 55.0338 22.2499C55.0338 27.2353 50.8582 31.2767 45.7074 31.2767ZM25.6199 31.2437L23.6643 25.5477C24.0921 25.5477 24.4997 25.5477 24.85 25.5477C26.7075 25.5477 28.213 24.0902 28.213 22.2924C28.213 20.4949 28.2634 13.4903 28.2634 13.4903L34.1767 10.2077C34.1767 10.2077 34.1767 17.2647 34.1767 22.2499C34.1767 26.9842 30.4102 30.8644 25.6199 31.2437ZM8.61537 22.2499C8.61537 17.2647 8.61537 9.49739 8.61537 9.49739L14.5286 6.21485C14.5286 6.21485 14.5453 10.9939 14.5594 15.3704H17.9126L20.0021 21.4569L14.5771 21.4842C14.5779 21.8479 14.5784 22.1247 14.5784 22.2924C14.5784 24.0902 16.0843 25.5477 17.9415 25.5477C18.8729 25.5477 20.1403 25.5477 21.4066 25.5477L23.3734 31.2767C20.3787 31.2767 22.4918 31.2767 17.9417 31.2767C12.791 31.2767 8.61537 27.2353 8.61537 22.2499ZM0 13.5573L5.8981 10.2751V31.1835H0V13.5573ZM0 6.99254L5.8981 0.427734V7.11225L0 11.0511V6.99254Z" fill="#282E2C"/>
    <path fill-rule="evenodd" clip-rule="evenodd" d="M85.5681 25.5477C86.4995 25.5477 87.7669 25.5477 89.0333 25.5477L91 31.2767C88.0053 31.2767 90.1185 31.2767 85.5684 31.2767C80.4176 31.2767 76.242 27.2353 76.242 22.2499C76.242 17.2647 76.242 9.49739 76.242 9.49739L82.1552 6.21485C82.1552 6.21485 82.1719 10.9939 82.186 15.3704H85.5392L87.6287 21.4569L82.204 21.4842C82.2048 21.8479 82.2051 22.1247 82.2051 22.2924C82.2051 24.0902 83.7109 25.5477 85.5681 25.5477ZM67.4097 31.3577C63.4325 31.6129 57.4832 31.0883 57.4832 31.0883L58.3589 25.3789C58.3589 25.3789 66.3356 25.7138 67.0665 25.6669C67.5765 25.6341 68.3891 25.5654 68.3565 25.0288C68.3297 24.5857 68.0767 24.5431 66.5327 24.1104C64.078 23.3995 63.5871 23.6648 60.9982 22.6998C58.5689 21.794 57.3323 19.8146 57.1846 17.3792C56.9509 13.5295 58.7379 10.9012 64.0011 10.5638C67.9786 10.3086 73.3948 10.8251 73.3948 10.8251L72.282 16.5312C72.282 16.5312 65.1947 16.1974 64.4636 16.2443C63.7327 16.2912 63.0378 16.3496 63.0713 16.8977C63.1177 17.6626 64.14 17.8916 64.9574 18.0762C67.5336 18.828 67.9014 18.6688 69.7735 19.2727C72.7432 20.2307 74.0541 21.7018 74.2387 24.7479C74.4723 28.5976 72.47 31.0335 67.4097 31.3577ZM45.7074 31.2767C40.5566 31.2767 36.3813 27.2353 36.3813 22.2499C36.3813 17.2647 36.3813 13.4903 36.3813 13.4903L42.2942 10.2077C42.2942 10.2077 42.3444 20.4949 42.3444 22.2924C42.3444 24.0902 43.8499 25.5477 45.7074 25.5477C47.5646 25.5477 49.0704 24.0902 49.0704 22.2924C49.0704 20.4949 49.1208 13.4903 49.1208 13.4903L55.0338 10.2077C55.0338 10.2077 55.0338 17.2647 55.0338 22.2499C55.0338 27.2353 50.8582 31.2767 45.7074 31.2767ZM25.6199 31.2437L23.6643 25.5477C24.0921 25.5477 24.4997 25.5477 24.85 25.5477C26.7075 25.5477 28.213 24.0902 28.213 22.2924C28.213 20.4949 28.2634 13.4903 28.2634 13.4903L34.1767 10.2077C34.1767 10.2077 34.1767 17.2647 34.1767 22.2499C34.1767 26.9842 30.4102 30.8644 25.6199 31.2437ZM8.61537 22.2499C8.61537 17.2647 8.61537 9.49739 8.61537 9.49739L14.5286 6.21485C14.5286 6.21485 14.5453 10.9939 14.5594 15.3704H17.9126L20.0021 21.4569L14.5771 21.4842C14.5779 21.8479 14.5784 22.1247 14.5784 22.2924C14.5784 24.0902 16.0843 25.5477 17.9415 25.5477C18.8729 25.5477 20.1403 25.5477 21.4066 25.5477L23.3734 31.2767C20.3787 31.2767 22.4918 31.2767 17.9417 31.2767C12.791 31.2767 8.61537 27.2353 8.61537 22.2499ZM0 13.5573L5.8981 10.2751V31.1835H0V13.5573ZM0 6.99254L5.8981 0.427734V7.11225L0 11.0511V6.99254Z" fill="black"/>
</svg>
