<svg width="328" height="37" viewBox="0 0 328 37" fill="none" xmlns="http://www.w3.org/2000/svg">
    <path d="M5.22781 0.470503H0V36.3333H5.22781V20.0225H6.6916C7.47577 20.0225 8.25995 20.1794 8.78273 21.1204C9.14868 21.8 9.25323 22.8978 9.41007 25.6686C9.5669 29.2235 9.72373 32.0465 10.4556 33.8762C11.5012 36.4901 13.54 36.647 14.5333 36.647C15.1607 36.647 15.4743 36.5947 15.8926 36.3333V31.7328C15.6834 31.7851 15.2129 31.8897 14.847 31.2623C14.4288 30.5304 14.4288 29.4326 14.3242 26.1914C14.2197 23.5774 14.2197 21.5386 13.6446 19.8657C13.3309 18.977 12.6513 17.5655 10.5602 17.095V16.9381C11.3444 16.6767 12.024 16.2062 12.4422 15.6312C13.1741 14.6902 13.3832 13.54 13.4878 12.4422C13.5923 11.658 13.906 7.94628 13.9583 6.63933C14.0105 4.70503 14.6902 4.65276 15.1607 4.65276H15.4743V0.470503C15.0038 0.209113 14.6902 0.156835 14.0628 0.156835C13.2786 0.156835 12.0763 0.209113 11.1352 1.09784C10.4556 1.72518 9.93285 2.8753 9.67146 3.97314C9.51462 4.70503 9.46234 5.59376 9.35779 7.26666C9.25323 9.14868 9.20095 10.4034 8.93956 12.599C8.83501 13.4355 8.52134 14.6902 6.6916 14.6902H5.22781V0.470503Z" fill="white"/>
    <path d="M32.544 0C30.5051 0 27.4207 0.836452 25.7478 5.17554C24.7545 7.73717 24.3886 11.1875 24.3886 18.4019C24.3886 25.6163 24.7545 29.0666 25.7478 31.6283C27.4207 35.9674 30.5051 36.8038 32.544 36.8038C34.5828 36.8038 37.6672 35.9674 39.3401 31.6283C40.3334 29.0666 40.6994 25.6163 40.6994 18.4019C40.6994 11.1875 40.3334 7.73717 39.3401 5.17554C37.6672 0.836452 34.5828 0 32.544 0ZM30.1392 18.4019C30.1392 7.63261 30.5574 6.27338 30.9233 5.54148C31.2893 4.80959 31.7075 4.44364 32.544 4.44364C33.3804 4.44364 33.7986 4.80959 34.1646 5.54148C34.5305 6.27338 34.9488 7.63261 34.9488 18.4019C34.9488 29.1712 34.5305 30.5304 34.1646 31.2623C33.7986 31.9942 33.3804 32.3602 32.544 32.3602C31.7075 32.3602 31.2893 31.9942 30.9233 31.2623C30.5574 30.5304 30.1392 29.1712 30.1392 18.4019Z" fill="white"/>
    <path d="M47.683 36.3333C48.1535 36.5424 48.6763 36.647 49.4604 36.647C51.5516 36.647 53.0153 35.7583 54.0609 34.2945C55.9429 31.576 55.9429 26.7664 56.2043 19.0292C56.3089 15.6312 56.4134 8.25995 56.4657 5.33237H59.707V36.3333H65.0393V0.470503H52.2835C52.2312 4.0777 52.1266 9.88057 51.9698 15.0561C51.8652 17.9314 51.6561 23.0024 51.4993 25.7731C51.2902 29.0667 50.8719 30.3736 50.1923 31.0009C49.6173 31.5237 48.5717 31.7851 47.683 31.7851V36.3333Z" fill="white"/>
    <path d="M89.3523 36.3333V31.7851H82.0334V19.8134H86.9998V15.2652H82.0334V5.0187H88.8818V0.470503H76.6487V36.3333H89.3523Z" fill="white"/>
    <path d="M108.122 27.4983C108.07 28.4393 107.861 29.8508 107.599 30.6873C107.338 31.5237 106.92 32.2556 105.927 32.2556C104.724 32.2556 104.358 31.2623 104.149 30.4782C103.888 29.5894 103.365 27.3937 103.365 18.5587C103.365 15.0038 103.417 9.61918 103.992 6.6916C104.201 5.69832 104.515 4.5482 105.874 4.5482C106.868 4.5482 107.233 5.33237 107.495 6.06426C107.913 7.21438 108.07 8.57362 108.122 9.67146L113.089 9.04412C112.984 6.84844 112.043 3.50264 110.684 1.98657C109.638 0.836451 107.913 0 105.822 0C102.947 0 101.326 1.56835 100.594 2.45708C99.1827 4.18225 97.7189 7.894 97.7189 18.0882C97.7189 29.0666 99.3395 32.6738 100.437 34.1376C102.163 36.4379 104.358 36.7515 105.927 36.7515C107.756 36.7515 109.534 36.3333 110.998 34.4513C112.2 32.883 112.932 30.1122 113.089 28.2302L108.122 27.4983Z" fill="white"/>
    <path d="M134.492 36.3333L128.793 0.470503H123.513L117.972 36.3333H122.781L123.879 26.4527H128.218L129.473 36.3333H134.492ZM127.695 22.0614H124.245L124.977 15.6834C125.866 7.94628 125.238 11.6057 125.813 5.90743C126.232 8.41678 125.97 8.15539 126.911 15.6834L127.695 22.0614Z" fill="white"/>
    <path d="M161.143 36.3333H166.005C167.521 36.3333 170.553 36.3856 172.749 34.399C173.847 33.4057 175.468 31.1578 175.468 26.3482C175.468 24.3616 175.154 21.434 174.004 19.6566C173.429 18.8201 172.331 17.67 170.501 17.1995C171.86 16.8336 172.801 15.9971 173.272 15.2652C174.265 13.8014 174.526 11.1352 174.526 9.25323C174.526 7.26666 174.265 3.86858 171.808 1.93429C170.031 0.52278 167.783 0.470503 166.005 0.470503H161.143V36.3333ZM166.267 15.3175V4.60048H166.998C167.626 4.60048 168.358 4.60048 168.985 5.7506C169.194 6.16882 169.612 7.10983 169.612 9.98513C169.612 12.2854 169.56 13.1741 169.246 13.8537C168.985 14.4288 168.358 15.4743 166.998 15.3698L166.267 15.3175ZM166.267 32.0988V19.4997H167.155C168.096 19.4997 168.776 19.3952 169.456 20.859C169.874 21.7477 170.083 22.8978 170.083 25.9822C170.083 28.9621 169.926 30.0077 169.612 30.6873C169.037 31.9942 168.253 32.0988 167.155 32.0988H166.267Z" fill="white"/>
    <path d="M209.364 5.85515H213.807V0.470503H199.692V5.85515H204.031V36.3333H209.364V5.85515Z" fill="white"/>
    <path d="M234.298 36.3333L228.6 0.470503H223.32L218.301 36.3333H222.588L223.686 26.4527H228.025L229.279 36.3333H234.298ZM227.502 22.0614H224.051L224.783 15.6834C225.672 7.94628 225.045 11.6057 225.62 5.90743C226.038 8.41678 225.777 8.15539 226.718 15.6834L227.502 22.0614Z" fill="white"/>
    <path d="M241.952 36.3333H247.284V5.33237H254.865V0.470503H241.952V36.3333Z" fill="white"/>
    <path d="M262.252 36.3333H266.853V33.458L272.604 16.9381C273.335 14.847 273.074 15.2652 273.858 12.8604H273.911C273.597 14.9516 273.388 17.67 273.388 19.2906V36.3333H277.988V0.470503H273.388V2.45708L267.637 18.8724C267.167 20.2839 267.533 19.1338 266.33 22.741H266.226C266.696 20.1271 266.853 17.3041 266.853 16.2585V0.470503H262.252V36.3333Z" fill="white"/>
    <path d="M285.808 36.3333C286.278 36.5424 286.801 36.647 287.585 36.647C289.676 36.647 291.14 35.7583 292.186 34.2945C294.068 31.576 294.068 26.7664 294.329 19.0292C294.434 15.6312 294.538 8.25995 294.591 5.33237H297.832V36.3333H303.164V0.470503H290.408C290.356 4.0777 290.252 9.88057 290.095 15.0561C289.99 17.9314 289.781 23.0024 289.624 25.7731C289.415 29.0667 288.997 30.3736 288.317 31.0009C287.742 31.5237 286.697 31.7851 285.808 31.7851V36.3333Z" fill="white"/>
    <path d="M328 36.3333V31.7851H320.681V19.8134H325.647V15.2652H320.681V5.0187H327.53V0.470503H315.296V36.3333H328Z" fill="white"/>
</svg>
