<svg xmlns="http://www.w3.org/2000/svg" display="none">

    <symbol id="search-icon" viewBox="0 0 27 27">
        <path d="M21 11C21 16.5228 16.5228 21 11 21C5.47715 21 1 16.5228 1 11C1 5.47715 5.47715 1 11 1C16.5228 1 21 5.47715 21 11Z"
              stroke-width="2" stroke-linecap="square"/>
        <path d="M18 18L26 26" stroke-width="2"/>
    </symbol>

    <symbol id="favorite-icon" viewBox="0 0 33 32">
        <path d="M16.5 3L20.3353 12.2212L30.2903 13.0193L22.7056 19.5163L25.0229 29.2307L16.5 24.025L7.97711 29.2307L10.2944 19.5163L2.70968 13.0193L12.6647 12.2212L16.5 3Z"
              stroke-width="2"/>
    </symbol>

    <symbol id="user-icon" viewBox="0 0 24 30">
        <rect x="5" y="1" width="14" height="14" rx="7" stroke-width="2"/>
        <path d="M19 20H5C2.79086 20 1 21.7909 1 24V29H23V24C23 21.7909 21.2091 20 19 20Z" stroke-width="2"
              stroke-linejoin="round"/>
    </symbol>

    <symbol id="basket-icon" viewBox="0 0 30 28">
        <path d="M0 1H3.49474L9.64 19H24.22L28.35 6H11" stroke-width="2"/>
        <path d="M13 25C13 26.1046 12.1046 27 11 27C9.89543 27 9 26.1046 9 25C9 23.8954 9.89543 23 11 23C12.1046 23 13 23.8954 13 25Z"
              stroke-width="2"/>
        <path d="M25 25C25 26.1046 24.1046 27 23 27C21.8954 27 21 26.1046 21 25C21 23.8954 21.8954 23 23 23C24.1046 23 25 23.8954 25 25Z"
              stroke-width="2"/>
    </symbol>

    <symbol id="phone-icon" viewBox="0 0 18 23">
        <path d="M2.02516 5.03141L2.02739 5.01588L2.05325 4.86597L2.03107 4.71017C2.02788 4.68776 2.03058 4.66987 2.0342 4.65867C2.03751 4.64841 2.04083 4.64551 2.04093 4.64541C3.42048 3.31082 5.37068 2.2486 7.10536 1.69814C7.52328 1.56552 8.046 1.76125 8.32309 2.26544L9.19946 1.78381L8.32309 2.26544C8.92131 3.35395 9.44614 4.40794 9.73903 5.20659C9.87132 5.56731 9.78235 6.00739 9.46033 6.34731L7.80347 7.3039L7.28288 7.60446L7.30409 8.20521L8.30347 8.16992C7.30409 8.20521 7.3041 8.20548 7.30411 8.20576L7.30413 8.20636L7.30418 8.20766L7.3043 8.2107L7.30463 8.21858L7.30574 8.24133C7.30671 8.25955 7.30816 8.28385 7.31032 8.31383C7.31464 8.37376 7.32177 8.45657 7.33344 8.55909C7.35674 8.7638 7.39834 9.04892 7.47236 9.38855C7.61962 10.0643 7.89969 10.9763 8.43518 11.9038C8.96986 12.8299 9.62893 13.5456 10.1464 14.0265C10.407 14.2685 10.6364 14.4555 10.8039 14.5842C10.8879 14.6486 10.9566 14.6987 11.0065 14.7341C11.0315 14.7518 11.0517 14.7658 11.0668 14.7762L11.0856 14.7889L11.0919 14.7931L11.0943 14.7947L11.0953 14.7954L11.0958 14.7957C11.096 14.7958 11.0962 14.796 11.6472 13.9615L11.0962 14.796L11.612 15.1365L12.1472 14.8275L13.8041 13.8709C14.2595 13.762 14.6851 13.905 14.9313 14.1999C15.4749 14.8509 16.1752 15.9183 16.8216 16.9853C17.1197 17.4774 17.0278 18.0279 16.704 18.3235C15.36 19.5506 13.465 20.7084 11.6194 21.2358L11.6194 21.2358C11.6191 21.2359 11.6149 21.2372 11.6046 21.235C11.593 21.2325 11.5762 21.2259 11.5584 21.212L11.4466 21.1243L11.3194 21.0731C11.32 21.0734 11.3198 21.0733 11.3187 21.0728L11.3186 21.0728L11.3177 21.0724L11.3013 21.0653C11.2829 21.0572 11.2508 21.0426 11.206 21.0211C11.1165 20.9779 10.9765 20.9065 10.7938 20.8016C10.4287 20.5917 9.89321 20.2475 9.25146 19.7258C7.96976 18.684 6.25547 16.9275 4.62507 14.1036C2.9948 11.2799 2.3562 8.96126 2.11847 7.37825C1.9994 6.58541 1.98036 5.97354 1.98907 5.57135C1.99343 5.37019 2.00473 5.22133 2.01397 5.1284C2.01859 5.08194 2.0227 5.04946 2.02516 5.03141Z"
              stroke-width="2"/>
    </symbol>


    <symbol id="location-icon" viewBox="0 0 18 24">
        <path d="M17 8.67203C17 5.59167 15.6667 1 8.99975 1C2.33283 1 1 5.59167 1 8.67203C1 11.8746 3.10287 15.0872 4.76256 17.065C7.92022 20.8279 8.98109 21.9798 8.99975 22C9.01841 21.9798 10.0798 20.8279 13.2374 17.065C14.8971 15.0872 17 11.8746 17 8.67203Z"
              stroke-width="2"/>
        <path d="M12 9.02206C12 7.80869 11.5 6 8.99991 6C6.49981 6 6 7.80869 6 9.02206M12 8.97794C12 10.1913 11.5 12 8.9999 12C6.49981 12 6 10.1913 6 8.97794"
              stroke-width="2"/>
    </symbol>

    <symbol id="payment-icon" viewBox="0 0 22 21">
        <path d="M10 18H1V1H19V11" stroke-width="2"/>
        <path d="M10 18H1V1H19V11" stroke-width="2"/>
        <path d="M9 11H21V20H11C9.89543 20 9 19.1046 9 18V11Z" stroke-width="2"/>
        <path d="M9 11H21V20H11C9.89543 20 9 19.1046 9 18V11Z" stroke-width="2"/>
        <path d="M9 10C9 8.89543 9.89543 8 11 8H19V11H9V10Z" stroke-width="2"/>
        <path d="M9 10C9 8.89543 9.89543 8 11 8H19V11H9V10Z" stroke-width="2"/>
        <rect x="7" y="1" width="6" height="4" stroke-width="2"/>
        <rect x="7" y="1" width="6" height="4" stroke-width="2"/>
        <rect x="16" y="14" width="3" height="3" rx="1.5"/>
        <rect x="16" y="14" width="3" height="3" rx="1.5"/>
    </symbol>

    <symbol id="payment-icon2" viewBox="0 0 22 21">
        <path d="M10 18H1V1H19V11" stroke="#282E2C" stroke-width="2"/>
        <path d="M10 18H1V1H19V11" stroke="black" stroke-width="2"/>
        <path d="M9 11H21V20H11C9.89543 20 9 19.1046 9 18V11Z" stroke="#282E2C" stroke-width="2"/>
        <path d="M9 11H21V20H11C9.89543 20 9 19.1046 9 18V11Z" stroke="black" stroke-width="2"/>
        <path d="M9 10C9 8.89543 9.89543 8 11 8H19V11H9V10Z" stroke="#282E2C" stroke-width="2"/>
        <path d="M9 10C9 8.89543 9.89543 8 11 8H19V11H9V10Z" stroke="black" stroke-width="2"/>
        <rect x="7" y="1" width="6" height="4" stroke="#282E2C" stroke-width="2"/>
        <rect x="7" y="1" width="6" height="4" stroke="black" stroke-width="2"/>
        <rect x="16" y="14" width="3" height="3" rx="1.5" fill="#282E2C"/>
        <rect x="16" y="14" width="3" height="3" rx="1.5" fill="black"/>
    </symbol>


    <symbol id="delivery-icon" viewBox="0 0 20 19">
        <rect x="1" y="1.5" width="18" height="16" stroke-width="2"/>
        <rect x="7" y="1.5" width="6" height="7" stroke-width="2"/>
    </symbol>

    <symbol id="revers-icon" viewBox="0 0 22 24">
        <path d="M21 7.30669C21 5.37302 16 3.17647 10.9997 1C5 3.17647 1 5.37302 1 7.30669C1 18.3364 10.9997 22 10.9997 22C10.9997 22 21 18.3369 21 7.30669Z"
              stroke-width="2"/>
        <path d="M21 7.30669C21 5.37302 16 3.17647 10.9997 1C5 3.17647 1 5.37302 1 7.30669C1 18.3364 10.9997 22 10.9997 22C10.9997 22 21 18.3369 21 7.30669Z"
              stroke-width="2"/>
        <path d="M7.49023 12.7605C8.5293 14.5603 10.8901 15.1425 12.7633 14.061C14.6365 12.9796 15.3127 10.6439 14.2736 8.84416C13.2345 7.04444 10.8737 6.46219 9.00052 7.54367"
              stroke-width="2"/>
        <path d="M7.49023 12.7605C8.5293 14.5603 10.8901 15.1425 12.7633 14.061C14.6365 12.9796 15.3127 10.6439 14.2736 8.84416C13.2345 7.04444 10.8737 6.46219 9.00052 7.54367"
              stroke-width="2"/>
        <path d="M6 11.043H10L6 15.043V11.043Z"/>
    </symbol>

    <symbol id="help-icon" viewBox="0 0 22 22">
        <path fill-rule="evenodd" clip-rule="evenodd"
              d="M2 11C2 15.9706 6.02944 20 11 20C15.9706 20 20 15.9706 20 11C20 6.02944 15.9706 2 11 2C6.02944 2 2 6.02944 2 11ZM11 0C4.92487 0 0 4.92487 0 11C0 17.0751 4.92487 22 11 22C17.0751 22 22 17.0751 22 11C22 4.92487 17.0751 0 11 0ZM12 15V17H10V15H12ZM10.9998 5C9.97521 5 9.10753 5.3993 8.51025 6.09724C7.92879 6.7767 7.66533 7.6642 7.66533 8.56457H9.66533C9.66533 8.03868 9.81904 7.64389 10.0298 7.39763C10.2247 7.16985 10.5243 7 10.9998 7C11.4907 7 11.764 7.16976 11.9207 7.37845C12.0939 7.60913 12.2415 8.04632 12.1445 8.77285C12.0799 9.25731 11.9543 9.51997 11.8319 9.70213C11.7224 9.86494 11.617 9.97297 11.4545 10.1396L11.4545 10.1397C11.386 10.2099 11.3073 10.2906 11.2139 10.3901C10.9211 10.7022 10.5934 11.1034 10.3552 11.7146C10.1228 12.3109 10 13.0427 10 14H12C12 13.2073 12.1026 12.7387 12.2187 12.4409C12.329 12.1579 12.4729 11.9713 12.6724 11.7586C12.7079 11.7207 12.7509 11.6768 12.7993 11.6275L12.7993 11.6275C12.9926 11.4303 13.2708 11.1464 13.4916 10.8181C13.8008 10.3582 14.0253 9.79871 14.127 9.03749C14.2701 7.9653 14.0999 6.9499 13.5201 6.17767C12.9238 5.38346 12.0092 5 10.9998 5Z"/>
    </symbol>


    <symbol id="percent-icon" viewBox="0 0 19 19">
        <rect x="17" width="2.23956" height="23.3093" transform="rotate(45 17 0)"/>
        <circle cx="4" cy="4" r="3" stroke-width="2"/>
        <circle cx="15" cy="14" r="3" stroke-width="2"/>
    </symbol>

    <symbol id="reviews-icon" viewBox="0 0 18 17">
        <path d="M9 13.8158H8.87908L8.76164 13.8446L3.1378 15.2249V12.2895V11.8558L2.82125 11.5595C1.65586 10.4684 1 9.10425 1 7.65789C1 4.45844 4.356 1.5 9 1.5C13.644 1.5 17 4.45844 17 7.65789C17 10.8574 13.644 13.8158 9 13.8158Z"
              stroke-width="2"/>
    </symbol>

    <symbol id="info-icon" viewBox="0 0 22 22">
        <path fill-rule="evenodd" clip-rule="evenodd"
              d="M2 11C2 15.9706 6.02944 20 11 20C15.9706 20 20 15.9706 20 11C20 6.02944 15.9706 2 11 2C6.02944 2 2 6.02944 2 11ZM11 0C4.92487 0 0 4.92487 0 11C0 17.0751 4.92487 22 11 22C17.0751 22 22 17.0751 22 11C22 4.92487 17.0751 0 11 0ZM10 6.5C10 5.67157 10.6716 5 11.5 5C12.3284 5 13 5.67157 13 6.5C13 7.32843 12.3284 8 11.5 8C10.6716 8 10 7.32843 10 6.5ZM10.6126 9H9V11H10.6126L9.49006 14.3675C9.05837 15.6626 10.0223 17 11.3874 17H13V15H11.3874L12.5099 11.6325C12.9416 10.3374 11.9777 9 10.6126 9Z"/>
        <path fill-rule="evenodd" clip-rule="evenodd"
              d="M2 11C2 15.9706 6.02944 20 11 20C15.9706 20 20 15.9706 20 11C20 6.02944 15.9706 2 11 2C6.02944 2 2 6.02944 2 11ZM11 0C4.92487 0 0 4.92487 0 11C0 17.0751 4.92487 22 11 22C17.0751 22 22 17.0751 22 11C22 4.92487 17.0751 0 11 0ZM10 6.5C10 5.67157 10.6716 5 11.5 5C12.3284 5 13 5.67157 13 6.5C13 7.32843 12.3284 8 11.5 8C10.6716 8 10 7.32843 10 6.5ZM10.6126 9H9V11H10.6126L9.49006 14.3675C9.05837 15.6626 10.0223 17 11.3874 17H13V15H11.3874L12.5099 11.6325C12.9416 10.3374 11.9777 9 10.6126 9Z"/>
    </symbol>

    <symbol id="question-icon" viewBox="0 0 7 9">
        <path d="M2.51052 6.25975H4.19872V6.11418C4.20763 5.27926 4.51943 4.88963 5.22322 4.48287C6.05618 4.00761 6.59961 3.37821 6.59961 2.37203C6.59961 0.873454 5.34348 0 3.57511 0C1.95818 0 0.639698 0.813511 0.599609 2.52617H2.41698C2.44371 1.82826 2.98268 1.45576 3.5662 1.45576C4.16754 1.45576 4.65306 1.8411 4.65306 2.43625C4.65306 2.99715 4.2299 3.36965 3.68201 3.70362C2.93369 4.15747 2.51498 4.6156 2.51052 6.11418V6.25975ZM3.38803 9C3.95818 9 4.45262 8.54187 4.45707 7.97241C4.45262 7.41151 3.95818 6.95338 3.38803 6.95338C2.80005 6.95338 2.31453 7.41151 2.31899 7.97241C2.31453 8.54187 2.80005 9 3.38803 9Z"/>
    </symbol>

    <symbol id="arrow-select" viewBox="0 0 12 8">
        <path d="M5.69922 8L11.1992 0H0.199219L5.69922 8Z"/>
        <path d="M5.69922 8L11.1992 0H0.199219L5.69922 8Z"/>
    </symbol>

    <symbol id="logo" viewBox="0 0 328 37">
        <path d="M5.22781 0.470503H0V36.3333H5.22781V20.0225H6.6916C7.47577 20.0225 8.25995 20.1794 8.78273 21.1204C9.14868 21.8 9.25323 22.8978 9.41007 25.6686C9.5669 29.2235 9.72373 32.0465 10.4556 33.8762C11.5012 36.4901 13.54 36.647 14.5333 36.647C15.1607 36.647 15.4743 36.5947 15.8926 36.3333V31.7328C15.6834 31.7851 15.2129 31.8897 14.847 31.2623C14.4288 30.5304 14.4288 29.4326 14.3242 26.1914C14.2197 23.5774 14.2197 21.5386 13.6446 19.8657C13.3309 18.977 12.6513 17.5655 10.5602 17.095V16.9381C11.3444 16.6767 12.024 16.2062 12.4422 15.6312C13.1741 14.6902 13.3832 13.54 13.4878 12.4422C13.5923 11.658 13.906 7.94628 13.9583 6.63933C14.0105 4.70503 14.6902 4.65276 15.1607 4.65276H15.4743V0.470503C15.0038 0.209113 14.6902 0.156835 14.0628 0.156835C13.2786 0.156835 12.0763 0.209113 11.1352 1.09784C10.4556 1.72518 9.93285 2.8753 9.67146 3.97314C9.51462 4.70503 9.46234 5.59376 9.35779 7.26666C9.25323 9.14868 9.20095 10.4034 8.93956 12.599C8.83501 13.4355 8.52134 14.6902 6.6916 14.6902H5.22781V0.470503Z"/>
        <path d="M32.544 0C30.5051 0 27.4207 0.836452 25.7478 5.17554C24.7545 7.73717 24.3886 11.1875 24.3886 18.4019C24.3886 25.6163 24.7545 29.0666 25.7478 31.6283C27.4207 35.9674 30.5051 36.8038 32.544 36.8038C34.5828 36.8038 37.6672 35.9674 39.3401 31.6283C40.3334 29.0666 40.6994 25.6163 40.6994 18.4019C40.6994 11.1875 40.3334 7.73717 39.3401 5.17554C37.6672 0.836452 34.5828 0 32.544 0ZM30.1392 18.4019C30.1392 7.63261 30.5574 6.27338 30.9233 5.54148C31.2893 4.80959 31.7075 4.44364 32.544 4.44364C33.3804 4.44364 33.7986 4.80959 34.1646 5.54148C34.5305 6.27338 34.9488 7.63261 34.9488 18.4019C34.9488 29.1712 34.5305 30.5304 34.1646 31.2623C33.7986 31.9942 33.3804 32.3602 32.544 32.3602C31.7075 32.3602 31.2893 31.9942 30.9233 31.2623C30.5574 30.5304 30.1392 29.1712 30.1392 18.4019Z"/>
        <path d="M47.683 36.3333C48.1535 36.5424 48.6763 36.647 49.4604 36.647C51.5516 36.647 53.0153 35.7583 54.0609 34.2945C55.9429 31.576 55.9429 26.7664 56.2043 19.0292C56.3089 15.6312 56.4134 8.25995 56.4657 5.33237H59.707V36.3333H65.0393V0.470503H52.2835C52.2312 4.0777 52.1266 9.88057 51.9698 15.0561C51.8652 17.9314 51.6561 23.0024 51.4993 25.7731C51.2902 29.0667 50.8719 30.3736 50.1923 31.0009C49.6173 31.5237 48.5717 31.7851 47.683 31.7851V36.3333Z"/>
        <path d="M89.3523 36.3333V31.7851H82.0334V19.8134H86.9998V15.2652H82.0334V5.0187H88.8818V0.470503H76.6487V36.3333H89.3523Z"/>
        <path d="M108.122 27.4983C108.07 28.4393 107.861 29.8508 107.599 30.6873C107.338 31.5237 106.92 32.2556 105.927 32.2556C104.724 32.2556 104.358 31.2623 104.149 30.4782C103.888 29.5894 103.365 27.3937 103.365 18.5587C103.365 15.0038 103.417 9.61918 103.992 6.6916C104.201 5.69832 104.515 4.5482 105.874 4.5482C106.868 4.5482 107.233 5.33237 107.495 6.06426C107.913 7.21438 108.07 8.57362 108.122 9.67146L113.089 9.04412C112.984 6.84844 112.043 3.50264 110.684 1.98657C109.638 0.836451 107.913 0 105.822 0C102.947 0 101.326 1.56835 100.594 2.45708C99.1827 4.18225 97.7189 7.894 97.7189 18.0882C97.7189 29.0666 99.3395 32.6738 100.437 34.1376C102.163 36.4379 104.358 36.7515 105.927 36.7515C107.756 36.7515 109.534 36.3333 110.998 34.4513C112.2 32.883 112.932 30.1122 113.089 28.2302L108.122 27.4983Z"/>
        <path d="M134.492 36.3333L128.793 0.470503H123.513L117.972 36.3333H122.781L123.879 26.4527H128.218L129.473 36.3333H134.492ZM127.695 22.0614H124.245L124.977 15.6834C125.866 7.94628 125.238 11.6057 125.813 5.90743C126.232 8.41678 125.97 8.15539 126.911 15.6834L127.695 22.0614Z"/>
        <path d="M161.143 36.3333H166.005C167.521 36.3333 170.553 36.3856 172.749 34.399C173.847 33.4057 175.468 31.1578 175.468 26.3482C175.468 24.3616 175.154 21.434 174.004 19.6566C173.429 18.8201 172.331 17.67 170.501 17.1995C171.86 16.8336 172.801 15.9971 173.272 15.2652C174.265 13.8014 174.526 11.1352 174.526 9.25323C174.526 7.26666 174.265 3.86858 171.808 1.93429C170.031 0.52278 167.783 0.470503 166.005 0.470503H161.143V36.3333ZM166.267 15.3175V4.60048H166.998C167.626 4.60048 168.358 4.60048 168.985 5.7506C169.194 6.16882 169.612 7.10983 169.612 9.98513C169.612 12.2854 169.56 13.1741 169.246 13.8537C168.985 14.4288 168.358 15.4743 166.998 15.3698L166.267 15.3175ZM166.267 32.0988V19.4997H167.155C168.096 19.4997 168.776 19.3952 169.456 20.859C169.874 21.7477 170.083 22.8978 170.083 25.9822C170.083 28.9621 169.926 30.0077 169.612 30.6873C169.037 31.9942 168.253 32.0988 167.155 32.0988H166.267Z"/>
        <path d="M209.364 5.85515H213.807V0.470503H199.692V5.85515H204.031V36.3333H209.364V5.85515Z"/>
        <path d="M234.298 36.3333L228.6 0.470503H223.32L218.301 36.3333H222.588L223.686 26.4527H228.025L229.279 36.3333H234.298ZM227.502 22.0614H224.051L224.783 15.6834C225.672 7.94628 225.045 11.6057 225.62 5.90743C226.038 8.41678 225.777 8.15539 226.718 15.6834L227.502 22.0614Z"/>
        <path d="M241.952 36.3333H247.284V5.33237H254.865V0.470503H241.952V36.3333Z"/>
        <path d="M262.252 36.3333H266.853V33.458L272.604 16.9381C273.335 14.847 273.074 15.2652 273.858 12.8604H273.911C273.597 14.9516 273.388 17.67 273.388 19.2906V36.3333H277.988V0.470503H273.388V2.45708L267.637 18.8724C267.167 20.2839 267.533 19.1338 266.33 22.741H266.226C266.696 20.1271 266.853 17.3041 266.853 16.2585V0.470503H262.252V36.3333Z"/>
        <path d="M285.808 36.3333C286.278 36.5424 286.801 36.647 287.585 36.647C289.676 36.647 291.14 35.7583 292.186 34.2945C294.068 31.576 294.068 26.7664 294.329 19.0292C294.434 15.6312 294.538 8.25995 294.591 5.33237H297.832V36.3333H303.164V0.470503H290.408C290.356 4.0777 290.252 9.88057 290.095 15.0561C289.99 17.9314 289.781 23.0024 289.624 25.7731C289.415 29.0667 288.997 30.3736 288.317 31.0009C287.742 31.5237 286.697 31.7851 285.808 31.7851V36.3333Z"/>
        <path d="M328 36.3333V31.7851H320.681V19.8134H325.647V15.2652H320.681V5.0187H327.53V0.470503H315.296V36.3333H328Z"/>
    </symbol>

    <symbol id="clock-icon" viewBox="0 0 24 24">
        <circle cx="12" cy="12" r="10" stroke-width="2"/>
        <path d="M12 6V12L15 15" stroke-width="2"/>
    </symbol>

    <symbol id="checkbox" viewBox="0 0 14 13">
        <path d="M1 7.66667L5.5 11L13 1" stroke-width="2"/>
    </symbol>

    <symbol id="question-icon" viewBox="0 0 7 9">
        <path d="M2.51052 6.25975H4.19872V6.11418C4.20763 5.27926 4.51943 4.88963 5.22322 4.48287C6.05618 4.00761 6.59961 3.37821 6.59961 2.37203C6.59961 0.873454 5.34348 0 3.57511 0C1.95818 0 0.639698 0.813511 0.599609 2.52617H2.41698C2.44371 1.82826 2.98268 1.45576 3.5662 1.45576C4.16754 1.45576 4.65306 1.8411 4.65306 2.43625C4.65306 2.99715 4.2299 3.36965 3.68201 3.70362C2.93369 4.15747 2.51498 4.6156 2.51052 6.11418V6.25975ZM3.38803 9C3.95818 9 4.45262 8.54187 4.45707 7.97241C4.45262 7.41151 3.95818 6.95338 3.38803 6.95338C2.80005 6.95338 2.31453 7.41151 2.31899 7.97241C2.31453 8.54187 2.80005 9 3.38803 9Z"/>
    </symbol>

    <symbol id="close" viewBox="0 0 14 14">
        <path fill-rule="evenodd" clip-rule="evenodd"
              d="M5.58613 6.99921L0.886719 2.29909L2.30082 0.884766L7.00023 5.58489L11.6993 0.885062L13.1135 2.29938L8.41434 6.99921L13.1135 11.699L11.6993 13.1134L7.00023 8.41353L2.30082 13.1137L0.886719 11.6993L5.58613 6.99921Z"/>
    </symbol>

    <symbol id="vk" viewBox="0 0 22 15">
        <path d="M20.9704 12.9985C20.9456 12.9375 20.9224 12.8869 20.9009 12.8464C20.545 12.1161 19.8649 11.2198 18.861 10.1572L18.8398 10.1328L18.8292 10.1209L18.8185 10.1087H18.8077C18.3521 9.61384 18.0635 9.28113 17.9427 9.11079C17.7216 8.7863 17.6721 8.45785 17.7929 8.12505C17.8783 7.87361 18.1989 7.3426 18.7541 6.5313C19.0462 6.10133 19.2775 5.75673 19.4483 5.49711C20.6802 3.63133 21.2142 2.43907 21.0504 1.91987L20.9867 1.79853C20.944 1.72549 20.8336 1.65866 20.6558 1.59772C20.4776 1.53691 20.2499 1.52685 19.9721 1.56738L16.8963 1.59158C16.8465 1.57147 16.7753 1.57334 16.6826 1.59772C16.59 1.6221 16.5437 1.63433 16.5437 1.63433L16.4902 1.6648L16.4477 1.70141C16.4121 1.72562 16.3729 1.76819 16.3302 1.82905C16.2876 1.88969 16.2521 1.96086 16.2236 2.04196C15.8888 3.02348 15.508 3.93604 15.0807 4.7796C14.8173 5.28262 14.5753 5.71855 14.3543 6.08765C14.1337 6.45663 13.9485 6.72849 13.7991 6.90275C13.6495 7.07718 13.5145 7.21692 13.3932 7.32249C13.2721 7.42809 13.1797 7.47271 13.1157 7.45639C13.0515 7.44007 12.9911 7.42387 12.9339 7.40768C12.8343 7.33463 12.7542 7.23529 12.6937 7.10957C12.6331 6.98385 12.5922 6.82561 12.5709 6.63499C12.5496 6.44423 12.537 6.28016 12.5334 6.1422C12.5301 6.00442 12.5316 5.80953 12.5389 5.55809C12.5463 5.30652 12.5496 5.13631 12.5496 5.04707C12.5496 4.73878 12.5549 4.40419 12.5655 4.04322C12.5762 3.68226 12.585 3.39625 12.5922 3.18555C12.5995 2.97464 12.6029 2.7515 12.6029 2.51625C12.6029 2.281 12.5903 2.09651 12.5655 1.96261C12.5409 1.82888 12.5033 1.69907 12.4536 1.57322C12.4037 1.4475 12.3306 1.35024 12.2347 1.2812C12.1386 1.21225 12.0191 1.15753 11.8769 1.11687C11.4995 1.01958 11.0189 0.966945 10.435 0.958763C9.11068 0.942568 8.25977 1.03999 7.8824 1.2509C7.73289 1.34002 7.59758 1.46177 7.47661 1.61579C7.34841 1.79431 7.33053 1.89174 7.42308 1.90776C7.85035 1.98068 8.15282 2.15511 8.33085 2.43089L8.395 2.57702C8.4449 2.68246 8.49473 2.86912 8.54459 3.13676C8.59438 3.40439 8.62652 3.70045 8.64066 4.02477C8.6762 4.61702 8.6762 5.12399 8.64066 5.54573C8.60501 5.96764 8.57134 6.29609 8.53921 6.53134C8.50707 6.76659 8.45904 6.95721 8.395 7.10318C8.33085 7.24918 8.28817 7.33842 8.26677 7.37081C8.24541 7.4032 8.2276 7.42362 8.21346 7.43163C8.12092 7.47203 8.02467 7.49261 7.92505 7.49261C7.82528 7.49261 7.70431 7.43576 7.56193 7.32214C7.4196 7.20853 7.27187 7.05246 7.11877 6.8537C6.96566 6.65489 6.79298 6.37707 6.60067 6.02019C6.40851 5.66331 6.20912 5.24153 6.00263 4.75484L5.83179 4.40189C5.72499 4.17482 5.5791 3.8442 5.39397 3.41031C5.20873 2.97626 5.045 2.55639 4.90266 2.15081C4.84577 1.98047 4.76029 1.85078 4.64638 1.76154L4.59293 1.72493C4.55739 1.69254 4.50034 1.65815 4.42209 1.6215C4.34372 1.58489 4.26194 1.55864 4.17643 1.54249L1.25007 1.5667C0.951032 1.5667 0.748133 1.64388 0.641296 1.79802L0.598539 1.87094C0.57718 1.91155 0.566406 1.97642 0.566406 2.0657C0.566406 2.15494 0.587766 2.26447 0.630523 2.39415C1.05772 3.538 1.52228 4.64114 2.02422 5.70376C2.52615 6.76637 2.96233 7.62234 3.33248 8.27089C3.7027 8.9199 4.08007 9.53244 4.46458 10.1082C4.84909 10.6842 5.10362 11.0533 5.22815 11.2154C5.35283 11.3779 5.45076 11.4994 5.52195 11.5805L5.789 11.8724C5.95988 12.0671 6.21081 12.3003 6.5419 12.572C6.87307 12.8439 7.2397 13.1115 7.64199 13.3754C8.04434 13.6388 8.51242 13.8537 9.04649 14.02C9.58049 14.1864 10.1002 14.2532 10.6058 14.221H11.834C12.0831 14.1965 12.2719 14.1072 12.4001 13.9532L12.4426 13.8922C12.4712 13.8438 12.4979 13.7686 12.5226 13.6674C12.5476 13.566 12.56 13.4543 12.56 13.3328C12.5527 12.984 12.5761 12.6697 12.6293 12.3899C12.6826 12.1102 12.7432 11.8993 12.8111 11.7572C12.8789 11.6153 12.9554 11.4956 13.0406 11.3985C13.126 11.3012 13.1868 11.2422 13.2225 11.222C13.258 11.2015 13.2863 11.1877 13.3076 11.1794C13.4785 11.1145 13.6796 11.1773 13.9112 11.3681C14.1427 11.5588 14.3598 11.7941 14.5628 12.0739C14.7657 12.3539 15.0096 12.668 15.2943 13.0167C15.5793 13.3656 15.8284 13.6249 16.0419 13.7955L16.2554 13.9415C16.398 14.039 16.5832 14.1282 16.811 14.2093C17.0385 14.2904 17.2378 14.3106 17.409 14.2701L20.143 14.2215C20.4134 14.2215 20.6238 14.1705 20.7731 14.0693C20.9226 13.9679 21.0115 13.8562 21.0401 13.7347C21.0687 13.6131 21.0702 13.4751 21.0456 13.3208C21.0202 13.1669 20.9953 13.0593 20.9704 12.9985Z"/>
        <path d="M20.9704 12.9985C20.9456 12.9375 20.9224 12.8869 20.9009 12.8464C20.545 12.1161 19.8649 11.2198 18.861 10.1572L18.8398 10.1328L18.8292 10.1209L18.8185 10.1087H18.8077C18.3521 9.61384 18.0635 9.28113 17.9427 9.11079C17.7216 8.7863 17.6721 8.45785 17.7929 8.12505C17.8783 7.87361 18.1989 7.3426 18.7541 6.5313C19.0462 6.10133 19.2775 5.75673 19.4483 5.49711C20.6802 3.63133 21.2142 2.43907 21.0504 1.91987L20.9867 1.79853C20.944 1.72549 20.8336 1.65866 20.6558 1.59772C20.4776 1.53691 20.2499 1.52685 19.9721 1.56738L16.8963 1.59158C16.8465 1.57147 16.7753 1.57334 16.6826 1.59772C16.59 1.6221 16.5437 1.63433 16.5437 1.63433L16.4902 1.6648L16.4477 1.70141C16.4121 1.72562 16.3729 1.76819 16.3302 1.82905C16.2876 1.88969 16.2521 1.96086 16.2236 2.04196C15.8888 3.02348 15.508 3.93604 15.0807 4.7796C14.8173 5.28262 14.5753 5.71855 14.3543 6.08765C14.1337 6.45663 13.9485 6.72849 13.7991 6.90275C13.6495 7.07718 13.5145 7.21692 13.3932 7.32249C13.2721 7.42809 13.1797 7.47271 13.1157 7.45639C13.0515 7.44007 12.9911 7.42387 12.9339 7.40768C12.8343 7.33463 12.7542 7.23529 12.6937 7.10957C12.6331 6.98385 12.5922 6.82561 12.5709 6.63499C12.5496 6.44423 12.537 6.28016 12.5334 6.1422C12.5301 6.00442 12.5316 5.80953 12.5389 5.55809C12.5463 5.30652 12.5496 5.13631 12.5496 5.04707C12.5496 4.73878 12.5549 4.40419 12.5655 4.04322C12.5762 3.68226 12.585 3.39625 12.5922 3.18555C12.5995 2.97464 12.6029 2.7515 12.6029 2.51625C12.6029 2.281 12.5903 2.09651 12.5655 1.96261C12.5409 1.82888 12.5033 1.69907 12.4536 1.57322C12.4037 1.4475 12.3306 1.35024 12.2347 1.2812C12.1386 1.21225 12.0191 1.15753 11.8769 1.11687C11.4995 1.01958 11.0189 0.966945 10.435 0.958763C9.11068 0.942568 8.25977 1.03999 7.8824 1.2509C7.73289 1.34002 7.59758 1.46177 7.47661 1.61579C7.34841 1.79431 7.33053 1.89174 7.42308 1.90776C7.85035 1.98068 8.15282 2.15511 8.33085 2.43089L8.395 2.57702C8.4449 2.68246 8.49473 2.86912 8.54459 3.13676C8.59438 3.40439 8.62652 3.70045 8.64066 4.02477C8.6762 4.61702 8.6762 5.12399 8.64066 5.54573C8.60501 5.96764 8.57134 6.29609 8.53921 6.53134C8.50707 6.76659 8.45904 6.95721 8.395 7.10318C8.33085 7.24918 8.28817 7.33842 8.26677 7.37081C8.24541 7.4032 8.2276 7.42362 8.21346 7.43163C8.12092 7.47203 8.02467 7.49261 7.92505 7.49261C7.82528 7.49261 7.70431 7.43576 7.56193 7.32214C7.4196 7.20853 7.27187 7.05246 7.11877 6.8537C6.96566 6.65489 6.79298 6.37707 6.60067 6.02019C6.40851 5.66331 6.20912 5.24153 6.00263 4.75484L5.83179 4.40189C5.72499 4.17482 5.5791 3.8442 5.39397 3.41031C5.20873 2.97626 5.045 2.55639 4.90266 2.15081C4.84577 1.98047 4.76029 1.85078 4.64638 1.76154L4.59293 1.72493C4.55739 1.69254 4.50034 1.65815 4.42209 1.6215C4.34372 1.58489 4.26194 1.55864 4.17643 1.54249L1.25007 1.5667C0.951032 1.5667 0.748133 1.64388 0.641296 1.79802L0.598539 1.87094C0.57718 1.91155 0.566406 1.97642 0.566406 2.0657C0.566406 2.15494 0.587766 2.26447 0.630523 2.39415C1.05772 3.538 1.52228 4.64114 2.02422 5.70376C2.52615 6.76637 2.96233 7.62234 3.33248 8.27089C3.7027 8.9199 4.08007 9.53244 4.46458 10.1082C4.84909 10.6842 5.10362 11.0533 5.22815 11.2154C5.35283 11.3779 5.45076 11.4994 5.52195 11.5805L5.789 11.8724C5.95988 12.0671 6.21081 12.3003 6.5419 12.572C6.87307 12.8439 7.2397 13.1115 7.64199 13.3754C8.04434 13.6388 8.51242 13.8537 9.04649 14.02C9.58049 14.1864 10.1002 14.2532 10.6058 14.221H11.834C12.0831 14.1965 12.2719 14.1072 12.4001 13.9532L12.4426 13.8922C12.4712 13.8438 12.4979 13.7686 12.5226 13.6674C12.5476 13.566 12.56 13.4543 12.56 13.3328C12.5527 12.984 12.5761 12.6697 12.6293 12.3899C12.6826 12.1102 12.7432 11.8993 12.8111 11.7572C12.8789 11.6153 12.9554 11.4956 13.0406 11.3985C13.126 11.3012 13.1868 11.2422 13.2225 11.222C13.258 11.2015 13.2863 11.1877 13.3076 11.1794C13.4785 11.1145 13.6796 11.1773 13.9112 11.3681C14.1427 11.5588 14.3598 11.7941 14.5628 12.0739C14.7657 12.3539 15.0096 12.668 15.2943 13.0167C15.5793 13.3656 15.8284 13.6249 16.0419 13.7955L16.2554 13.9415C16.398 14.039 16.5832 14.1282 16.811 14.2093C17.0385 14.2904 17.2378 14.3106 17.409 14.2701L20.143 14.2215C20.4134 14.2215 20.6238 14.1705 20.7731 14.0693C20.9226 13.9679 21.0115 13.8562 21.0401 13.7347C21.0687 13.6131 21.0702 13.4751 21.0456 13.3208C21.0202 13.1669 20.9953 13.0593 20.9704 12.9985Z"/>
    </symbol>

    <symbol id="burger" viewBox="0 0 18 16">
        <path fill-rule="evenodd" clip-rule="evenodd" d="M18 9H0V7H18V9Z"/>
        <path fill-rule="evenodd" clip-rule="evenodd" d="M18 16H0V14H18V16Z"/>
        <path fill-rule="evenodd" clip-rule="evenodd" d="M18 2H0V0H18V2Z"/>
    </symbol>


    <symbol id="menu-icon1" viewBox="0 0 20 21">
        <path fill-rule="evenodd" clip-rule="evenodd"
              d="M10 0.662109L10.6644 1.25266L19.6644 9.25266L20 9.551V10.0001V20.0001V21.0001H19H1H0V20.0001V10.0001V9.551L0.335636 9.25266L9.33564 1.25266L10 0.662109ZM10 3.33802L2 10.4491V19.0001H18V10.4491L10 3.33802Z"/>
        <path fill-rule="evenodd" clip-rule="evenodd"
              d="M10 0.662109L10.6644 1.25266L19.6644 9.25266L20 9.551V10.0001V20.0001V21.0001H19H1H0V20.0001V10.0001V9.551L0.335636 9.25266L9.33564 1.25266L10 0.662109ZM10 3.33802L2 10.4491V19.0001H18V10.4491L10 3.33802Z"/>
    </symbol>

    <symbol id="menu-icon2" viewBox="0 0 20 20">
        <path fill-rule="evenodd" clip-rule="evenodd"
              d="M8.44374 18H7.22222C6.0315 18 4.77335 17.3356 3.73669 15.9002C2.70193 14.4675 2 12.388 2 10C2 7.61204 2.70193 5.5325 3.73669 4.09979C4.77335 2.66445 6.0315 2 7.22222 2H8.44374C6.68994 3.82446 5.55556 6.7288 5.55556 10C5.55556 13.2712 6.68994 16.1755 8.44374 18ZM12.7778 0C16.7665 0 20 4.47715 20 10C20 15.5228 16.7665 20 12.7778 20H10.7778H7.22222C3.23351 20 0 15.5232 0 10C0 4.47677 3.23351 0 7.22222 0H10.7778H12.7778ZM11.954 2.10547H12.7778V2C13.9684 2 15.2266 2.66448 16.2633 4.09991C17.2981 5.53269 18 7.61225 18 10C18 12.3877 17.2981 14.4673 16.2633 15.9001C15.2266 17.3355 13.9684 18 12.7778 18V17.8949H11.9556C11.0245 17.6566 10.0924 17.008 9.29225 15.9001C8.25747 14.4673 7.55556 12.3877 7.55556 10C7.55556 7.61225 8.25747 5.53269 9.29225 4.09991C10.0919 2.99266 11.0234 2.34413 11.954 2.10547ZM13.0167 12.3383C13.3099 11.8383 13.5556 11.0163 13.5556 10.0005C13.5556 8.98472 13.3099 8.16272 13.0167 7.66277C12.9196 7.4972 12.838 7.39528 12.7778 7.33366C12.7176 7.39528 12.6359 7.4972 12.5388 7.66277C12.2456 8.16272 12 8.98472 12 10.0005C12 11.0163 12.2456 11.8383 12.5388 12.3383C12.6359 12.5038 12.7176 12.6057 12.7778 12.6674C12.838 12.6057 12.9196 12.5038 13.0167 12.3383ZM12.6643 12.7555C12.6642 12.755 12.6687 12.7525 12.6784 12.7494C12.6693 12.7545 12.6644 12.7561 12.6643 12.7555ZM12.8771 12.7494C12.8868 12.7525 12.8914 12.755 12.8913 12.7555C12.8911 12.7561 12.8863 12.7545 12.8771 12.7494ZM12.8913 7.24549C12.8914 7.24601 12.8868 7.24857 12.8771 7.25162C12.8863 7.2465 12.8911 7.24498 12.8913 7.24549ZM12.6784 7.25162C12.6687 7.24857 12.6642 7.24601 12.6643 7.24549C12.6644 7.24498 12.6693 7.2465 12.6784 7.25162ZM12.7778 14.7374C14.3119 14.7374 15.5556 12.6166 15.5556 10.0005C15.5556 7.38443 14.3119 5.26367 12.7778 5.26367C11.2437 5.26367 10 7.38443 10 10.0005C10 12.6166 11.2437 14.7374 12.7778 14.7374Z"/>
    </symbol>

    <symbol id="menu-icon3" viewBox="0 0 18 16">
        <path fill-rule="evenodd" clip-rule="evenodd" d="M18 9H0V7H18V9Z"/>
        <path fill-rule="evenodd" clip-rule="evenodd" d="M18 9H0V7H18V9Z"/>
        <path fill-rule="evenodd" clip-rule="evenodd" d="M18 16H0V14H18V16Z"/>
        <path fill-rule="evenodd" clip-rule="evenodd" d="M18 16H0V14H18V16Z"/>
        <path fill-rule="evenodd" clip-rule="evenodd" d="M18 2H0V0H18V2Z"/>
        <path fill-rule="evenodd" clip-rule="evenodd" d="M18 2H0V0H18V2Z"/>
    </symbol>

    <symbol id="menu-icon4" viewBox="0 0 18 22">
        <path fill-rule="evenodd" clip-rule="evenodd"
              d="M9 0C5.68629 0 3 2.68629 3 6C3 9.31371 5.68629 12 9 12C12.3137 12 15 9.31371 15 6C15 2.68629 12.3137 0 9 0ZM5 6C5 3.79086 6.79086 2 9 2C11.2091 2 13 3.79086 13 6C13 8.20914 11.2091 10 9 10C6.79086 10 5 8.20914 5 6ZM5 14C2.23858 14 0 16.2386 0 19V21C0 21.5523 0.447715 22 1 22H17C17.5523 22 18 21.5523 18 21V19C18 16.2386 15.7614 14 13 14H5ZM2 19C2 17.3431 3.34315 16 5 16H13C14.6569 16 16 17.3431 16 19V20H2V19Z"/>
        <path fill-rule="evenodd" clip-rule="evenodd"
              d="M9 0C5.68629 0 3 2.68629 3 6C3 9.31371 5.68629 12 9 12C12.3137 12 15 9.31371 15 6C15 2.68629 12.3137 0 9 0ZM5 6C5 3.79086 6.79086 2 9 2C11.2091 2 13 3.79086 13 6C13 8.20914 11.2091 10 9 10C6.79086 10 5 8.20914 5 6ZM5 14C2.23858 14 0 16.2386 0 19V21C0 21.5523 0.447715 22 1 22H17C17.5523 22 18 21.5523 18 21V19C18 16.2386 15.7614 14 13 14H5ZM2 19C2 17.3431 3.34315 16 5 16H13C14.6569 16 16 17.3431 16 19V20H2V19Z"/>
    </symbol>

    <symbol id="menu-icon5" viewBox="0 0 23 22">
        <path fill-rule="evenodd" clip-rule="evenodd"
              d="M1.87971 2H0V0H2.5887H3.29769L3.53234 0.669038L7.85716 13H17.4868L19.6452 6H8.14816V4H21H22.3548L21.9556 5.29465L19.1806 14.2947L18.9631 15H18.2249H7.14816H6.43917L6.20452 14.331L1.87971 2ZM8.5 19C8.22386 19 8 19.2239 8 19.5C8 19.7761 8.22386 20 8.5 20C8.77614 20 9 19.7761 9 19.5C9 19.2239 8.77614 19 8.5 19ZM6 19.5C6 18.1193 7.11929 17 8.5 17C9.88071 17 11 18.1193 11 19.5C11 20.8807 9.88071 22 8.5 22C7.11929 22 6 20.8807 6 19.5ZM16 19.5C16 19.2239 16.2239 19 16.5 19C16.7761 19 17 19.2239 17 19.5C17 19.7761 16.7761 20 16.5 20C16.2239 20 16 19.7761 16 19.5ZM16.5 17C15.1193 17 14 18.1193 14 19.5C14 20.8807 15.1193 22 16.5 22C17.8807 22 19 20.8807 19 19.5C19 18.1193 17.8807 17 16.5 17Z"/>
        <path fill-rule="evenodd" clip-rule="evenodd"
              d="M1.87971 2H0V0H2.5887H3.29769L3.53234 0.669038L7.85716 13H17.4868L19.6452 6H8.14816V4H21H22.3548L21.9556 5.29465L19.1806 14.2947L18.9631 15H18.2249H7.14816H6.43917L6.20452 14.331L1.87971 2ZM8.5 19C8.22386 19 8 19.2239 8 19.5C8 19.7761 8.22386 20 8.5 20C8.77614 20 9 19.7761 9 19.5C9 19.2239 8.77614 19 8.5 19ZM6 19.5C6 18.1193 7.11929 17 8.5 17C9.88071 17 11 18.1193 11 19.5C11 20.8807 9.88071 22 8.5 22C7.11929 22 6 20.8807 6 19.5ZM16 19.5C16 19.2239 16.2239 19 16.5 19C16.7761 19 17 19.2239 17 19.5C17 19.7761 16.7761 20 16.5 20C16.2239 20 16 19.7761 16 19.5ZM16.5 17C15.1193 17 14 18.1193 14 19.5C14 20.8807 15.1193 22 16.5 22C17.8807 22 19 20.8807 19 19.5C19 18.1193 17.8807 17 16.5 17Z"/>
    </symbol>

</svg>